<?xml version="1.0" encoding="UTF-8" standalone="no"?>
<!-- Created with Inkscape (http://www.inkscape.org/) -->

<svg
   width="100"
   height="100"
   viewBox="0 0 26.458333 26.458334"
   version="1.1"
   id="svg5"
   inkscape:version="1.1.1 (3bf5ae0d25, 2021-09-20)"
   sodipodi:docname="bandeira_2.svg"
   xmlns:inkscape="http://www.inkscape.org/namespaces/inkscape"
   xmlns:sodipodi="http://sodipodi.sourceforge.net/DTD/sodipodi-0.dtd"
   xmlns="http://www.w3.org/2000/svg"
   xmlns:svg="http://www.w3.org/2000/svg">
  <sodipodi:namedview
     id="namedview7"
     pagecolor="#a9a9a9"
     bordercolor="#111111"
     borderopacity="1"
     inkscape:pageshadow="0"
     inkscape:pageopacity="0"
     inkscape:pagecheckerboard="1"
     inkscape:document-units="mm"
     showgrid="false"
     units="px"
     inkscape:snap-global="true"
     inkscape:zoom="5.9247595"
     inkscape:cx="71.395303"
     inkscape:cy="45.487078"
     inkscape:window-width="1298"
     inkscape:window-height="745"
     inkscape:window-x="54"
     inkscape:window-y="-8"
     inkscape:window-maximized="1"
     inkscape:current-layer="layer2" />
  <defs
     id="defs2">
    <marker
       style="overflow:visible"
       id="DotL"
       refX="0.0"
       refY="0.0"
       orient="auto"
       inkscape:stockid="DotL"
       inkscape:isstock="true">
      <path
         transform="scale(0.8) translate(7.4, 1)"
         style="fill-rule:evenodd;fill:context-stroke;stroke:context-stroke;stroke-width:1.0pt"
         d="M -2.5,-1.0 C -2.5,1.7600000 -4.7400000,4.0 -7.5,4.0 C -10.260000,4.0 -12.5,1.7600000 -12.5,-1.0 C -12.5,-3.7600000 -10.260000,-6.0 -7.5,-6.0 C -4.7400000,-6.0 -2.5,-3.7600000 -2.5,-1.0 z "
         id="path1116" />
    </marker>
  </defs>
  <g
     inkscape:label="Camada 1"
     inkscape:groupmode="layer"
     id="layer1"
     style="display:inline">
    <path
       style="fill:none;stroke:#ffffff;stroke-width:0.79375;stroke-linecap:round;stroke-linejoin:miter;stroke-miterlimit:4;stroke-dasharray:none;stroke-opacity:1"
       d="M 2.566164,22.37695 C 3.2846899,20.580635 9.9567163,2.1555777 9.9567163,2.1555777"
       id="path878" />
    <path
       id="rect1511"
       style="fill:#ffffff;fill-rule:evenodd;stroke:#ffffff;stroke-width:0.79375;stroke-linecap:round"
       d="m 10.159768,3.1158088 c 2.668811,3.2333667 9.405975,1.5839803 13.665807,4.9199935 L 21.096107,15.61719 C 16.220395,11.767944 9.8424939,14.392473 7.4302997,10.697197 Z"
       sodipodi:nodetypes="ccccc" />
  </g>
  <g
     inkscape:groupmode="layer"
     id="layer2"
     inkscape:label="Camada 2">
    <path
       id="path3685"
       style="fill:#ffffff;fill-rule:evenodd;stroke:none;stroke-width:0.79375;stroke-linecap:round;fill-opacity:1"
       d="m 10.159768,3.1158088 c 2.668811,3.2333667 9.405975,1.5839803 13.665807,4.9199935 L 21.096107,15.61719 C 16.220395,11.767944 9.8424939,14.392473 7.4302997,10.697197 Z"
       sodipodi:nodetypes="ccccc" />
    <path
       id="path11935"
       style="fill:#bbbbbb;fill-opacity:1;fill-rule:evenodd;stroke:none;stroke-width:0.79375;stroke-linecap:round"
       d="m 14.644487,9.4836732 c 2.506632,0.292486 5.321346,0.6006738 7.757148,2.5071008 L 23.832953,8.0290333 C 21.710579,6.2998932 18.316944,5.8009683 15.76524,5.3948789 c 0,0 -1.131853,4.084288 -1.120753,4.0887943 z"
       sodipodi:nodetypes="ccccc" />
    <path
       id="path12508"
       style="fill:#bbbbbb;fill-opacity:1;fill-rule:evenodd;stroke:none;stroke-width:3;stroke-linecap:round"
       d="m 33.106801,26.556552 -5.023778,13.873799 c 3.894288,6.783051 13.800561,8.304044 23.048025,9.059918 L 55.307291,35.826773 C 42.384647,34.625054 36.044881,32.055778 33.106801,26.556552 Z"
       transform="scale(0.26458333)"
       sodipodi:nodetypes="ccccc" />
  </g>
</svg>
