<?xml version="1.0" encoding="UTF-8" standalone="no"?>
<!-- Created with Inkscape (http://www.inkscape.org/) -->

<svg
   width="100"
   height="100"
   viewBox="0 0 26.458333 26.458334"
   version="1.1"
   id="svg5"
   inkscape:version="1.1.1 (3bf5ae0d25, 2021-09-20)"
   sodipodi:docname="circulo.svg"
   xmlns:inkscape="http://www.inkscape.org/namespaces/inkscape"
   xmlns:sodipodi="http://sodipodi.sourceforge.net/DTD/sodipodi-0.dtd"
   xmlns:xlink="http://www.w3.org/1999/xlink"
   xmlns="http://www.w3.org/2000/svg"
   xmlns:svg="http://www.w3.org/2000/svg">
  <sodipodi:namedview
     id="namedview7"
     pagecolor="#a9a9a9"
     bordercolor="#111111"
     borderopacity="1"
     inkscape:pageshadow="0"
     inkscape:pageopacity="0"
     inkscape:pagecheckerboard="1"
     inkscape:document-units="mm"
     showgrid="false"
     units="px"
     inkscape:zoom="2.4061314"
     inkscape:cx="77.510313"
     inkscape:cy="37.196638"
     inkscape:window-width="1298"
     inkscape:window-height="745"
     inkscape:window-x="54"
     inkscape:window-y="-8"
     inkscape:window-maximized="1"
     inkscape:current-layer="layer1" />
  <defs
     id="defs2">
    <linearGradient
       inkscape:collect="always"
       id="linearGradient1183">
      <stop
         style="stop-color:#ffffff;stop-opacity:0"
         offset="0"
         id="stop1179" />
      <stop
         style="stop-color:#ffffff;stop-opacity:0.64028776"
         offset="1"
         id="stop1181" />
    </linearGradient>
    <radialGradient
       inkscape:collect="always"
       xlink:href="#linearGradient1183"
       id="radialGradient1187"
       cx="13.305417"
       cy="13.305417"
       fx="13.305417"
       fy="13.305417"
       r="13.229167"
       gradientUnits="userSpaceOnUse"
       gradientTransform="matrix(0.90025478,0,0,0.89477081,1.3271517,1.4001187)"
       spreadMethod="pad" />
  </defs>
  <g
     inkscape:label="Camada 1"
     inkscape:groupmode="layer"
     id="layer1">
    <path
       id="path1098"
       style="mix-blend-mode:normal;fill:url(#radialGradient1187);fill-opacity:1;fill-rule:evenodd;stroke-width:3;stroke-linecap:round"
       d="M 11.65625,0.71484375 C 8.4812535,1.1613403 5.4807843,2.7946419 3.4699002,5.3043328 0.97661793,8.3214701 0.03647968,12.530036 0.98688464,16.32644 1.8875352,20.068272 4.58853,23.322654 8.1150099,24.874094 11.649551,26.491086 15.926038,26.331271 19.334058,24.460495 22.762274,22.639732 25.23507,19.152246 25.824875,15.314623 26.683021,10.53461 24.428662,5.4075856 20.370095,2.754543 17.78924,1.0237767 14.720538,0.33079106 11.65625,0.71484375 Z" />
    <path
       id="path4057"
       style="mix-blend-mode:normal;fill:url(#radialGradient1187);fill-opacity:1;fill-rule:evenodd;stroke-width:3;stroke-linecap:round"
       d="M 11.65625,0.71484375 C 8.4812535,1.1613403 5.4807843,2.7946419 3.4699002,5.3043328 0.97661793,8.3214701 0.03647968,12.530036 0.98688464,16.32644 1.8875352,20.068272 4.58853,23.322654 8.1150099,24.874094 11.649551,26.491086 15.926038,26.331271 19.334058,24.460495 22.762274,22.639732 25.23507,19.152246 25.824875,15.314623 26.683021,10.53461 24.428662,5.4075856 20.370095,2.754543 17.78924,1.0237767 14.720538,0.33079106 11.65625,0.71484375 Z" />
  </g>
</svg>
