<?xml version="1.0" encoding="UTF-8" standalone="no"?>
<!-- Created with Inkscape (http://www.inkscape.org/) -->

<svg
   width="1360"
   height="768"
   viewBox="0 0 359.83333 203.20001"
   version="1.1"
   id="svg5"
   inkscape:version="1.1.1 (3bf5ae0d25, 2021-09-20)"
   sodipodi:docname="Background_menu.svg"
   xmlns:inkscape="http://www.inkscape.org/namespaces/inkscape"
   xmlns:sodipodi="http://sodipodi.sourceforge.net/DTD/sodipodi-0.dtd"
   xmlns:xlink="http://www.w3.org/1999/xlink"
   xmlns="http://www.w3.org/2000/svg"
   xmlns:svg="http://www.w3.org/2000/svg">
  <sodipodi:namedview
     id="namedview7"
     pagecolor="#ffffff"
     bordercolor="#111111"
     borderopacity="1"
     inkscape:pageshadow="0"
     inkscape:pageopacity="0"
     inkscape:pagecheckerboard="1"
     inkscape:document-units="mm"
     showgrid="false"
     units="px"
     inkscape:zoom="0.58781078"
     inkscape:cx="823.39422"
     inkscape:cy="432.96245"
     inkscape:window-width="1298"
     inkscape:window-height="745"
     inkscape:window-x="54"
     inkscape:window-y="-8"
     inkscape:window-maximized="1"
     inkscape:current-layer="layer5"
     inkscape:snap-global="false" />
  <defs
     id="defs2">
    <linearGradient
       inkscape:collect="always"
       id="linearGradient1723">
      <stop
         style="stop-color:#142f52;stop-opacity:1"
         offset="0"
         id="stop1719" />
      <stop
         style="stop-color:#006e89;stop-opacity:1"
         offset="1"
         id="stop1721" />
    </linearGradient>
    <linearGradient
       inkscape:collect="always"
       id="linearGradient910">
      <stop
         style="stop-color:#22456e;stop-opacity:1"
         offset="0"
         id="stop906" />
      <stop
         style="stop-color:#56c69a;stop-opacity:1"
         offset="1"
         id="stop908" />
    </linearGradient>
    <linearGradient
       inkscape:collect="always"
       xlink:href="#linearGradient910"
       id="linearGradient912"
       x1="174.12798"
       y1="8.8166065"
       x2="177.65462"
       y2="386.16736"
       gradientUnits="userSpaceOnUse" />
    <linearGradient
       inkscape:collect="always"
       xlink:href="#linearGradient1723"
       id="linearGradient1725"
       x1="183.38541"
       y1="119.90585"
       x2="171.483"
       y2="211.15771"
       gradientUnits="userSpaceOnUse" />
    <filter
       inkscape:collect="always"
       style="color-interpolation-filters:sRGB"
       id="filter24851"
       x="-0.091202372"
       y="-0.15014179"
       width="1.1741358"
       height="1.3093912">
      <feGaussianBlur
         inkscape:collect="always"
         stdDeviation="0.43247672"
         id="feGaussianBlur24853" />
    </filter>
    <filter
       inkscape:collect="always"
       style="color-interpolation-filters:sRGB"
       id="filter24855"
       x="-0.14980818"
       y="-0.25273236"
       width="1.2872221"
       height="1.5153289">
      <feGaussianBlur
         inkscape:collect="always"
         stdDeviation="0.43247672"
         id="feGaussianBlur24857" />
    </filter>
    <filter
       inkscape:collect="always"
       style="color-interpolation-filters:sRGB"
       id="filter24859"
       x="-0.40198299"
       y="-0.35340441"
       width="1.8321617"
       height="1.7031294">
      <feGaussianBlur
         inkscape:collect="always"
         stdDeviation="0.43247672"
         id="feGaussianBlur24861" />
    </filter>
    <filter
       inkscape:collect="always"
       style="color-interpolation-filters:sRGB"
       id="filter24863"
       x="-0.46492134"
       y="-0.38871158"
       width="1.9542945"
       height="1.7698909">
      <feGaussianBlur
         inkscape:collect="always"
         stdDeviation="0.43247672"
         id="feGaussianBlur24865" />
    </filter>
    <filter
       inkscape:collect="always"
       style="color-interpolation-filters:sRGB"
       id="filter24867"
       x="-0.089896892"
       y="-0.69739099"
       width="1.1775313"
       height="2.39658">
      <feGaussianBlur
         inkscape:collect="always"
         stdDeviation="0.43247672"
         id="feGaussianBlur24869" />
    </filter>
    <filter
       inkscape:collect="always"
       style="color-interpolation-filters:sRGB"
       id="filter24871"
       x="-0.10453724"
       y="-0.72231271"
       width="1.2090317"
       height="2.4470075">
      <feGaussianBlur
         inkscape:collect="always"
         stdDeviation="0.43247672"
         id="feGaussianBlur24873" />
    </filter>
    <filter
       inkscape:collect="always"
       style="color-interpolation-filters:sRGB"
       id="filter24875"
       x="-0.23135345"
       y="-0.20513596"
       width="1.4404532"
       height="1.4352059">
      <feGaussianBlur
         inkscape:collect="always"
         stdDeviation="0.43247672"
         id="feGaussianBlur24877" />
    </filter>
    <filter
       inkscape:collect="always"
       style="color-interpolation-filters:sRGB"
       id="filter24879"
       x="-0.30338086"
       y="-0.25777687"
       width="1.5775877"
       height="1.5432693">
      <feGaussianBlur
         inkscape:collect="always"
         stdDeviation="0.43247672"
         id="feGaussianBlur24881" />
    </filter>
    <filter
       inkscape:collect="always"
       style="color-interpolation-filters:sRGB"
       id="filter24883"
       x="-0.14431578"
       y="-0.22558327"
       width="1.3033124"
       height="1.4300987">
      <feGaussianBlur
         inkscape:collect="always"
         stdDeviation="0.43247672"
         id="feGaussianBlur24885" />
    </filter>
    <filter
       inkscape:collect="always"
       style="color-interpolation-filters:sRGB"
       id="filter24887"
       x="-0.18658393"
       y="-0.30324322"
       width="1.3922911"
       height="1.5935855">
      <feGaussianBlur
         inkscape:collect="always"
         stdDeviation="0.43247672"
         id="feGaussianBlur24889" />
    </filter>
    <filter
       inkscape:collect="always"
       style="color-interpolation-filters:sRGB"
       id="filter24891"
       x="-0.1850913"
       y="-0.30419634"
       width="1.3871467"
       height="1.6381195">
      <feGaussianBlur
         inkscape:collect="always"
         stdDeviation="0.43247672"
         id="feGaussianBlur24893" />
    </filter>
    <filter
       inkscape:collect="always"
       style="color-interpolation-filters:sRGB"
       id="filter24895"
       x="-0.19878324"
       y="-0.30045283"
       width="1.4140658"
       height="1.62243">
      <feGaussianBlur
         inkscape:collect="always"
         stdDeviation="0.43247672"
         id="feGaussianBlur24897" />
    </filter>
    <filter
       inkscape:collect="always"
       style="color-interpolation-filters:sRGB"
       id="filter24899"
       x="-0.18630536"
       y="-1.1020002"
       width="1.3733311"
       height="3.2205633">
      <feGaussianBlur
         inkscape:collect="always"
         stdDeviation="0.43247672"
         id="feGaussianBlur24901" />
    </filter>
    <filter
       inkscape:collect="always"
       style="color-interpolation-filters:sRGB"
       id="filter24903"
       x="-0.23080898"
       y="-1.4175353"
       width="1.4520622"
       height="3.8493312">
      <feGaussianBlur
         inkscape:collect="always"
         stdDeviation="0.43247672"
         id="feGaussianBlur24905" />
    </filter>
    <filter
       inkscape:collect="always"
       style="color-interpolation-filters:sRGB"
       id="filter24907"
       x="-0.11412089"
       y="-0.64776781"
       width="1.2365616"
       height="2.2795753">
      <feGaussianBlur
         inkscape:collect="always"
         stdDeviation="0.43247672"
         id="feGaussianBlur24909" />
    </filter>
    <filter
       inkscape:collect="always"
       style="color-interpolation-filters:sRGB"
       id="filter24911"
       x="-0.13122198"
       y="-0.95041159"
       width="1.2731063"
       height="2.8723206">
      <feGaussianBlur
         inkscape:collect="always"
         stdDeviation="0.43247672"
         id="feGaussianBlur24913" />
    </filter>
    <filter
       inkscape:collect="always"
       style="color-interpolation-filters:sRGB"
       id="filter24915"
       x="-0.10022358"
       y="-0.35751342"
       width="1.204774"
       height="1.717432">
      <feGaussianBlur
         inkscape:collect="always"
         stdDeviation="0.43247672"
         id="feGaussianBlur24917" />
    </filter>
    <filter
       inkscape:collect="always"
       style="color-interpolation-filters:sRGB"
       id="filter24919"
       x="-0.12668522"
       y="-0.43323905"
       width="1.2542349"
       height="1.8705542">
      <feGaussianBlur
         inkscape:collect="always"
         stdDeviation="0.43247672"
         id="feGaussianBlur24921" />
    </filter>
    <filter
       inkscape:collect="always"
       style="color-interpolation-filters:sRGB"
       id="filter24923"
       x="-0.36234226"
       y="-0.13911167"
       width="1.715256"
       height="1.2725789">
      <feGaussianBlur
         inkscape:collect="always"
         stdDeviation="0.43247672"
         id="feGaussianBlur24925" />
    </filter>
    <filter
       inkscape:collect="always"
       style="color-interpolation-filters:sRGB"
       id="filter24927"
       x="-0.46275219"
       y="-0.15015298"
       width="1.9138878"
       height="1.2891726">
      <feGaussianBlur
         inkscape:collect="always"
         stdDeviation="0.43247672"
         id="feGaussianBlur24929" />
    </filter>
  </defs>
  <g
     inkscape:label="background"
     inkscape:groupmode="layer"
     id="layer1"
     sodipodi:insensitive="true">
    <rect
       style="fill:url(#linearGradient912);fill-opacity:1;fill-rule:evenodd;stroke-width:0.13;stroke-linecap:round"
       id="rect874"
       width="366.32999"
       height="206.30859"
       x="-3.5266423"
       y="-1.7633212" />
  </g>
  <g
     inkscape:groupmode="layer"
     id="layer2"
     inkscape:label="agua"
     sodipodi:insensitive="true">
    <path
       id="rect1687"
       style="fill:url(#linearGradient1725);fill-rule:evenodd;stroke-width:0.13;stroke-linecap:round"
       d="m -11.020757,115.49754 c 145.095787,-3.89841 288.461687,-3.6274 385.285697,3.96747 v 92.13353 H -11.902418 Z"
       sodipodi:nodetypes="ccccc" />
  </g>
  <g
     inkscape:groupmode="layer"
     id="layer5"
     inkscape:label="fx agua">
    <path
       style="fill:none;stroke:#ffffff;stroke-width:0.264583px;stroke-linecap:butt;stroke-linejoin:miter;stroke-opacity:1;filter:url(#filter24851)"
       d="m 211.46093,182.31882 c 3.73308,6.6232 12.6443,7.34573 12.6443,7.34573"
       id="path24677" />
    <path
       style="fill:none;stroke:#ffffff;stroke-width:0.264583px;stroke-linecap:butt;stroke-linejoin:miter;stroke-opacity:1;filter:url(#filter24855)"
       d="m 211.3405,185.93147 c 4.09435,4.57604 7.58659,4.45562 7.58659,4.45562"
       id="path24679" />
    <path
       style="fill:none;stroke:#ffffff;stroke-width:0.264583px;stroke-linecap:butt;stroke-linejoin:miter;stroke-opacity:1;filter:url(#filter24859)"
       d="m 276.24794,184.48641 c 2.28801,-0.48169 1.68589,1.92675 -1.32464,3.25139"
       id="path24681" />
    <path
       style="fill:none;stroke:#ffffff;stroke-width:0.264583px;stroke-linecap:butt;stroke-linejoin:miter;stroke-opacity:1;filter:url(#filter24863)"
       d="m 279.13806,184.48641 c 3.25138,0 -1.20423,3.01055 -1.20423,3.01055"
       id="path24683" />
    <path
       style="fill:none;stroke:#ffffff;stroke-width:0.264583px;stroke-linecap:butt;stroke-linejoin:miter;stroke-opacity:1;filter:url(#filter24867)"
       d="m 263.24236,190.38709 c -10.59713,2.28801 -12.16262,1.56548 -12.16262,1.56548"
       id="path24685" />
    <path
       style="fill:none;stroke:#ffffff;stroke-width:0.264583px;stroke-linecap:butt;stroke-linejoin:miter;stroke-opacity:1;filter:url(#filter24871)"
       d="m 263.24236,192.43426 c -8.30911,2.04717 -10.23587,1.56548 -10.23587,1.56548"
       id="path24687" />
    <path
       style="fill:none;stroke:#ffffff;stroke-width:0.264583px;stroke-linecap:butt;stroke-linejoin:miter;stroke-opacity:1;filter:url(#filter24875)"
       d="m 323.09207,159.92033 c 0.24082,5.78026 5.05772,5.05773 5.05772,5.05773"
       id="path24689" />
    <path
       style="fill:none;stroke:#ffffff;stroke-width:0.264583px;stroke-linecap:butt;stroke-linejoin:miter;stroke-opacity:1;filter:url(#filter24879)"
       d="m 321.647,162.20835 c 0.4817,3.61266 3.85349,4.09435 3.85349,4.09435"
       id="path24691" />
    <path
       style="fill:none;stroke:#ffffff;stroke-width:0.264583px;stroke-linecap:butt;stroke-linejoin:miter;stroke-opacity:1;filter:url(#filter24883)"
       d="m 294.91334,143.30211 c 7.94784,1.44506 7.34573,5.17814 7.34573,5.17814"
       id="path24693" />
    <path
       style="fill:none;stroke:#ffffff;stroke-width:0.264583px;stroke-linecap:butt;stroke-linejoin:miter;stroke-opacity:1;filter:url(#filter24887)"
       d="m 294.07037,144.74717 c 7.46618,1.20422 5.41899,3.8535 5.41899,3.8535"
       id="path24695" />
    <path
       style="fill:none;stroke:#ffffff;stroke-width:0.264583px;stroke-linecap:butt;stroke-linejoin:miter;stroke-opacity:1;filter:url(#filter24891)"
       d="m 355.24471,163.53299 c 6.14154,-1.56548 5.78028,-3.49223 5.78028,-3.49223"
       id="path24697" />
    <path
       style="fill:none;stroke:#ffffff;stroke-width:0.264583px;stroke-linecap:butt;stroke-linejoin:miter;stroke-opacity:1;filter:url(#filter24895)"
       d="m 357.65316,164.73721 c 6.0211,-2.04717 5.41899,-3.61266 5.41899,-3.61266"
       id="path24699" />
    <path
       style="fill:none;stroke:#ffffff;stroke-width:0.264583px;stroke-linecap:butt;stroke-linejoin:miter;stroke-opacity:1;filter:url(#filter24899)"
       d="m 177.50194,148.48025 c -3.37182,1.92675 -5.90068,0.60211 -5.90068,0.60211"
       id="path24701" />
    <path
       style="fill:none;stroke:#ffffff;stroke-width:0.264583px;stroke-linecap:butt;stroke-linejoin:miter;stroke-opacity:1;filter:url(#filter24903)"
       d="m 177.26109,150.28658 c -3.73308,1.68591 -4.9373,0.24085 -4.9373,0.24085"
       id="path24703" />
    <path
       style="fill:none;stroke:#ffffff;stroke-width:0.264583px;stroke-linecap:butt;stroke-linejoin:miter;stroke-opacity:1;filter:url(#filter24907)"
       d="m 129.33316,146.31266 c 7.34574,0.36126 9.15207,1.80632 9.15207,1.80632"
       id="path24705" />
    <path
       style="fill:none;stroke:#ffffff;stroke-width:0.264583px;stroke-linecap:butt;stroke-linejoin:miter;stroke-opacity:1;filter:url(#filter24911)"
       d="m 128.49021,148.11898 c 6.38236,-0.24084 7.94785,1.20423 7.94785,1.20423"
       id="path24707" />
    <path
       style="fill:none;stroke:#ffffff;stroke-width:0.264583px;stroke-linecap:butt;stroke-linejoin:miter;stroke-opacity:1;filter:url(#filter24915)"
       d="m 93.567847,150.64785 c -9.031645,3.25139 -10.356287,3.25139 -10.356287,3.25139"
       id="path24709" />
    <path
       style="fill:none;stroke:#ffffff;stroke-width:0.264583px;stroke-linecap:butt;stroke-linejoin:miter;stroke-opacity:1;filter:url(#filter24919)"
       d="m 94.772066,152.21333 c -7.225316,3.13097 -8.549957,2.64929 -8.549957,2.64929"
       id="path24711" />
    <path
       style="fill:none;stroke:#ffffff;stroke-width:0.264583px;stroke-linecap:butt;stroke-linejoin:miter;stroke-opacity:1;filter:url(#filter24923)"
       d="m 60.692656,167.86818 c -4.094345,4.9373 -3.130968,8.06827 -3.130968,8.06827"
       id="path24713" />
    <path
       style="fill:none;stroke:#ffffff;stroke-width:0.264583px;stroke-linecap:butt;stroke-linejoin:miter;stroke-opacity:1;filter:url(#filter24927)"
       d="m 62.73983,168.59071 c -2.528861,3.13098 -2.528861,7.46617 -2.528861,7.46617"
       id="path24715" />
  </g>
  <g
     inkscape:groupmode="layer"
     id="layer3"
     inkscape:label="iceberg"
     sodipodi:insensitive="true">
    <path
       id="path3184"
       style="fill:#f0f0f0;fill-opacity:1;stroke:none;stroke-width:0.264583px;stroke-linecap:butt;stroke-linejoin:miter;stroke-opacity:1"
       d="m 186.51931,127.76619 c -0.0422,0.0482 -0.0591,0.0779 -0.10801,0.13074 -0.18173,0.19649 -0.4088,0.42311 -0.67127,0.66766 -0.26247,0.24454 -0.56035,0.50699 -0.88522,0.77514 -0.32487,0.26816 -0.67648,0.54194 -1.04542,0.80926 -0.36893,0.26731 -0.75565,0.52846 -1.15031,0.77049 -0.19733,0.12102 -0.39654,0.23715 -0.59686,0.34727 -0.20033,0.11011 -0.40153,0.2139 -0.60255,0.31006 -0.20103,0.0961 -0.40208,0.18493 -0.60151,0.26406 -0.19944,0.0791 -0.39718,0.14868 -0.59273,0.20774 -0.19556,0.0591 -0.38888,0.10721 -0.57826,0.14315 -0.18938,0.0359 -0.37513,0.0595 -0.55604,0.0692 -0.38528,0.0208 -0.75941,0.0529 -1.12396,0.0946 -0.36456,0.0417 -0.71932,0.0932 -1.06454,0.15244 -0.34522,0.0592 -0.68094,0.12646 -1.00821,0.19999 -0.32727,0.0735 -0.64633,0.1532 -0.95704,0.23772 -0.62143,0.16903 -1.21104,0.35669 -1.77457,0.54983 -0.56354,0.19315 -1.10071,0.39207 -1.61747,0.58291 -0.51677,0.19084 -1.01287,0.37378 -1.49397,0.53589 -0.24055,0.0811 -0.47735,0.15691 -0.71107,0.22582 -0.23372,0.0689 -0.4647,0.13102 -0.69298,0.18449 -0.22828,0.0535 -0.45376,0.0981 -0.67799,0.13281 -0.22423,0.0347 -0.44713,0.0591 -0.6687,0.0718 -0.22156,0.0127 -0.44219,0.0137 -0.66249,10e-4 -0.22029,-0.0127 -0.44001,-0.0388 -0.66042,-0.0801 -0.88166,-0.16531 -1.8597,-0.3681 -2.83342,-0.54002 -0.48686,-0.086 -0.97269,-0.16444 -1.44488,-0.22634 -0.47218,-0.0619 -0.93085,-0.10745 -1.36322,-0.12816 -0.21618,-0.0104 -0.42583,-0.0145 -0.62735,-0.0114 -0.20152,0.003 -0.39506,0.0137 -0.57878,0.0326 -0.18371,0.0188 -0.35761,0.0461 -0.52038,0.0827 -0.16277,0.0366 -0.314,0.0825 -0.45268,0.13901 -0.13869,0.0566 -0.26475,0.12394 -0.37621,0.20257 -0.11146,0.0786 -0.2083,0.16845 -0.28939,0.27131 -0.0811,0.10285 -0.14621,0.21855 -0.19378,0.34778 -0.0476,0.12922 -0.078,0.27221 -0.0889,0.42995 -0.003,0.0458 -0.0127,0.0889 -0.0284,0.1297 -0.0158,0.0408 -0.0379,0.0792 -0.0656,0.11524 -0.0555,0.0721 -0.13401,0.13465 -0.23358,0.18862 -0.0996,0.054 -0.22004,0.0996 -0.35863,0.13694 -0.13859,0.0374 -0.29511,0.0666 -0.46767,0.0889 -0.17256,0.0223 -0.36128,0.0373 -0.56276,0.046 -0.20148,0.009 -0.41596,0.0111 -0.6413,0.008 -0.45068,-0.007 -0.94406,-0.0361 -1.45986,-0.0822 -0.51581,-0.046 -1.05424,-0.10863 -1.59474,-0.1819 -0.54049,-0.0733 -1.0829,-0.15701 -1.60765,-0.24546 -0.52475,-0.0884 -1.0316,-0.18179 -1.50017,-0.27337 -0.46856,-0.0916 -0.89877,-0.18141 -1.27072,-0.26406 -0.093,-0.0207 -0.20957,-0.0356 -0.34623,-0.0455 -0.13667,-0.01 -0.29335,-0.0149 -0.46768,-0.0155 -0.34865,-0.001 -0.76664,0.0145 -1.22989,0.0413 -0.9265,0.0536 -2.03421,0.15131 -3.13056,0.24546 -0.54818,0.0471 -1.0938,0.093 -1.6123,0.13229 -0.51851,0.0393 -1.00981,0.072 -1.45056,0.0915 -0.44076,0.0195 -0.83075,0.0257 -1.14567,0.0134 -0.15746,-0.006 -0.29643,-0.0168 -0.41341,-0.0331 -0.11698,-0.0163 -0.21218,-0.0382 -0.28267,-0.0661 -0.25223,-0.10017 -0.5065,-0.18367 -0.76275,-0.2527 -0.25624,-0.069 -0.51404,-0.12371 -0.77256,-0.16485 -0.25852,-0.0411 -0.51817,-0.0688 -0.77721,-0.0853 -0.25905,-0.0165 -0.51784,-0.0219 -0.77567,-0.0171 -0.25782,0.005 -0.5146,0.0199 -0.76946,0.0429 -0.25485,0.023 -0.50743,0.0541 -0.75757,0.092 -0.50029,0.0757 -0.98942,0.17791 -1.46038,0.29352 -0.47096,0.11561 -0.92418,0.24465 -1.35186,0.37414 -0.42767,0.12949 -0.83002,0.2594 -1.20044,0.37672 -0.37042,0.11732 -0.70849,0.22216 -1.00769,0.30127 -0.1496,0.0396 -0.2894,0.0726 -0.41858,0.0977 -0.12917,0.0251 -0.24801,0.0422 -0.35501,0.0496 -0.48948,0.034 -1.22606,0.0502 -2.06396,0.0625 -0.8379,0.0123 -1.77715,0.0206 -2.67116,0.0382 -0.894,0.0176 -1.74309,0.0447 -2.40088,0.0946 -0.3289,0.0249 -0.60972,0.0555 -0.82476,0.0935 -0.10752,0.019 -0.19858,0.0401 -0.27078,0.0631 -0.0722,0.0229 -0.12582,0.0477 -0.15814,0.0749 -0.0985,0.083 -0.19351,0.15275 -0.28576,0.2098 -0.0923,0.0571 -0.18171,0.10154 -0.26872,0.1354 -0.087,0.0339 -0.17153,0.0568 -0.25425,0.0703 -0.0827,0.0134 -0.16348,0.0172 -0.24288,0.0129 -0.0794,-0.004 -0.15758,-0.0165 -0.23461,-0.0357 -0.077,-0.0191 -0.15279,-0.0452 -0.22841,-0.0765 -0.15124,-0.0626 -0.30079,-0.14634 -0.45217,-0.24081 -0.15138,-0.0945 -0.30486,-0.19959 -0.46405,-0.30386 -0.1592,-0.10428 -0.32399,-0.20779 -0.49868,-0.29973 -0.17469,-0.0919 -0.3592,-0.17197 -0.55707,-0.22944 -0.0989,-0.0287 -0.20131,-0.0517 -0.30748,-0.0677 -0.10617,-0.016 -0.21585,-0.0249 -0.33021,-0.0253 -0.14911,-6e-4 -0.32552,0.0128 -0.52193,0.0372 -0.19642,0.0244 -0.41306,0.0597 -0.64182,0.1018 -0.45754,0.0842 -0.96475,0.19636 -1.46193,0.30748 -0.49718,0.11112 -0.98431,0.22134 -1.40146,0.30076 -0.20858,0.0397 -0.39973,0.0717 -0.56586,0.0925 -0.16614,0.0208 -0.30727,0.0302 -0.416,0.0248 -0.55103,-0.0275 -0.99674,-0.0448 -1.35599,-0.0517 -0.35925,-0.007 -0.63207,-0.003 -0.83612,0.0103 -0.20406,0.0138 -0.33984,0.0379 -0.4253,0.0723 -0.0427,0.0172 -0.0726,0.037 -0.0925,0.0594 -0.0199,0.0224 -0.0298,0.0474 -0.0315,0.0749 -0.003,0.0551 0.0252,0.1206 0.0672,0.19636 0.042,0.0758 0.0975,0.16196 0.14831,0.25839 0.0508,0.0964 0.0969,0.20278 0.11989,0.31987 0.0115,0.0585 0.0173,0.11974 0.015,0.18346 -0.002,0.0637 -0.0129,0.13007 -0.0336,0.19895 -0.0207,0.0689 -0.0546,0.12974 -0.10077,0.18293 -0.0461,0.0532 -0.10443,0.0986 -0.17364,0.13746 -0.0692,0.0389 -0.14942,0.0713 -0.23926,0.0972 -0.0898,0.0259 -0.18908,0.0452 -0.29714,0.0594 -0.21611,0.0284 -0.4666,0.0349 -0.74104,0.0248 -0.27444,-0.0101 -0.57285,-0.0365 -0.88625,-0.0744 -0.3134,-0.0379 -0.64163,-0.0872 -0.97462,-0.14211 -0.33299,-0.0549 -0.67086,-0.1156 -1.00407,-0.17673 -0.66641,-0.12226 -1.31397,-0.24601 -1.865,-0.32866 -0.27552,-0.0413 -0.56117,-0.0672 -0.853699,-0.0827 -0.292524,-0.0155 -0.591791,-0.0207 -0.894004,-0.0207 -0.604419,-1e-5 -1.22079,0.0207 -1.820042,0.0207 -0.299627,0 -0.595275,-0.005 -0.882634,-0.0207 -0.287359,-0.0155 -0.566804,-0.0414 -0.834575,-0.0827 -0.267769,-0.0413 -0.523431,-0.0982 -0.764294,-0.1757 -0.120431,-0.0387 -0.237517,-0.0826 -0.349848,-0.13229 -0.112334,-0.0497 -0.220176,-0.10544 -0.323496,-0.16743 -0.103319,-0.062 -0.215794,-0.11318 -0.336412,-0.15451 -0.120621,-0.0413 -0.249148,-0.0727 -0.385508,-0.0951 -0.136359,-0.0224 -0.28044,-0.0357 -0.43098,-0.0408 -0.15054,-0.005 -0.307615,-0.002 -0.470773,0.008 -0.326319,0.0207 -0.676434,0.0703 -1.043864,0.14262 -0.367429,0.0723 -0.752192,0.1673 -1.148249,0.27751 -0.39606,0.1102 -0.80323,0.23568 -1.215432,0.37 -0.4122,0.13431 -0.82954,0.27755 -1.245402,0.4222 -0.831723,0.28929 -1.658371,0.58505 -2.429825,0.83302 -0.192863,0.062 -0.398468,0.11457 -0.615466,0.15865 -0.216998,0.0441 -0.44542,0.0798 -0.683162,0.108 -0.237744,0.0282 -0.484909,0.0492 -0.740008,0.0636 -0.255095,0.0144 -0.517969,0.0222 -0.787032,0.0248 -0.538123,0.005 -1.100677,-0.0111 -1.674315,-0.0408 -0.57364,-0.0297 -1.15843,-0.0727 -1.740463,-0.12092 -1.164066,-0.0964 -2.317848,-0.21396 -3.352766,-0.28629 -0.517459,-0.0362 -1.005036,-0.0611 -1.449525,-0.0667 -0.222245,-0.003 -0.433602,-6.8e-4 -0.632518,0.007 -0.198919,0.008 -0.38539,0.0217 -0.557591,0.0424 -0.344398,0.0413 -0.749192,0.11548 -1.18959,0.21342 -0.440399,0.0979 -0.916723,0.21967 -1.404049,0.35657 -0.487323,0.1369 -0.985538,0.28879 -1.47071,0.447 -0.485172,0.15821 -0.957189,0.32286 -1.391132,0.48473 -0.43394,0.16186 -0.830117,0.32082 -1.163751,0.4687 -0.333637,0.14788 -0.604845,0.28478 -0.789101,0.40101 -0.09213,0.0581 -0.162158,0.11072 -0.207738,0.15761 -0.04558,0.0469 -0.06653,0.088 -0.05943,0.12144 0.0071,0.0335 0.04209,0.0597 0.108003,0.0775 0.06592,0.0178 0.162653,0.0274 0.293523,0.0274 0.06543,0 0.117751,0.006 0.157613,0.0186 0.03986,0.0125 0.06754,0.0315 0.0832,0.0558 0.01566,0.0243 0.01957,0.0541 0.0124,0.0894 -0.0072,0.0353 -0.02563,0.076 -0.05426,0.12144 -0.05726,0.0909 -0.156086,0.20153 -0.290939,0.32866 -0.134852,0.12713 -0.305472,0.27075 -0.506944,0.42788 -0.201475,0.15714 -0.4338,0.32755 -0.690914,0.5085 -0.257117,0.18094 -0.538996,0.37246 -0.840777,0.57102 -0.603557,0.39714 -1.285595,0.82318 -2.001944,1.25367 -0.716351,0.4305 -1.467334,0.86516 -2.208651,1.27951 -0.741318,0.41436 -1.472825,0.80833 -2.15129,1.15704 -0.678466,0.3487 -1.303621,0.65219 -1.831412,0.88573 -0.263895,0.11678 -0.503375,0.21637 -0.713136,0.29508 -0.209759,0.0787 -0.390203,0.1366 -0.53485,0.17104 -0.144648,0.0344 -0.277699,0.0862 -0.401011,0.15296 -0.123309,0.0667 -0.236474,0.14818 -0.340545,0.24288 -0.104074,0.0947 -0.199356,0.20253 -0.28629,0.32091 -0.08693,0.11839 -0.165817,0.24775 -0.237709,0.38551 -0.0719,0.13776 -0.136904,0.28384 -0.195856,0.43667 -0.05895,0.15282 -0.111572,0.31235 -0.159678,0.47594 -0.09622,0.32717 -0.172794,0.67156 -0.238228,1.01596 -0.130874,0.68879 -0.217078,1.37752 -0.325562,1.92856 -0.05425,0.27552 -0.114274,0.51648 -0.188103,0.7059 -0.03692,0.0947 -0.077,0.17667 -0.121957,0.2434 -0.04496,0.0667 -0.09476,0.118 -0.14986,0.15244 -0.05511,0.0344 -0.09594,0.0691 -0.124024,0.10387 -0.02809,0.0348 -0.04315,0.0697 -0.04703,0.10542 -0.0039,0.0357 0.0036,0.0722 0.02119,0.10956 0.01754,0.0373 0.04497,0.0756 0.08113,0.11523 0.07232,0.0792 0.179014,0.16368 0.309025,0.2558 0.130011,0.0921 0.28324,0.1921 0.448551,0.30231 0.165312,0.11021 0.342673,0.23086 0.520899,0.36432 0.178226,0.13345 0.357311,0.27945 0.526065,0.44131 0.08438,0.0809 0.1661,0.16577 0.243914,0.25477 0.07781,0.089 0.151691,0.18236 0.220142,0.28009 0.06845,0.0977 0.131815,0.19987 0.188103,0.30695 0.05629,0.10709 0.105431,0.21932 0.146759,0.33642 0.08266,0.23419 0.15173,0.51109 0.206189,0.81804 0.05446,0.30694 0.0944,0.64383 0.119373,0.99683 0.02497,0.35301 0.03475,0.72213 0.02894,1.09451 -0.0058,0.37238 -0.02723,0.74805 -0.06511,1.11311 -0.03788,0.36506 -0.09205,0.71953 -0.163296,1.05058 -0.03562,0.16553 -0.07568,0.32547 -0.11989,0.47749 -0.04421,0.15202 -0.09278,0.29632 -0.145728,0.4315 -0.05295,0.13518 -0.110225,0.26121 -0.172082,0.37621 -0.06186,0.11499 -0.128029,0.21909 -0.198953,0.31057 -0.07093,0.0915 -0.146707,0.16998 -0.226862,0.23461 -0.08015,0.0646 -0.164703,0.11542 -0.254246,0.14986 -0.08955,0.0344 -0.176369,0.0764 -0.260451,0.12558 -0.08408,0.0491 -0.165367,0.10522 -0.243395,0.16743 -0.07803,0.0622 -0.152895,0.13045 -0.224277,0.20412 -0.07138,0.0737 -0.139459,0.15264 -0.203605,0.23616 -0.128288,0.16704 -0.24166,0.35207 -0.337447,0.54881 -0.09578,0.19673 -0.173995,0.40503 -0.232542,0.61856 -0.05855,0.21353 -0.09711,0.43217 -0.113689,0.64957 -0.01657,0.21741 -0.01101,0.43398 0.01912,0.64234 0.01507,0.10418 0.03593,0.20643 0.06356,0.30593 0.02763,0.0995 0.06204,0.19618 0.102836,0.28939 0.04079,0.0932 0.08809,0.18291 0.142626,0.2682 0.05454,0.0853 0.116123,0.16608 0.185002,0.24184 0.06888,0.0758 0.121135,0.15494 0.158131,0.2372 0.03699,0.0823 0.05868,0.16735 0.06718,0.25528 0.0085,0.0879 0.0037,0.1785 -0.01292,0.2713 -0.0166,0.0928 -0.04489,0.18788 -0.0832,0.28474 -0.03831,0.0969 -0.08651,0.19547 -0.143142,0.29559 -0.05664,0.10011 -0.121701,0.2018 -0.19327,0.30437 -0.143143,0.20513 -0.312529,0.41417 -0.495062,0.62425 -0.365062,0.42017 -0.782151,0.84418 -1.142048,1.2454 -0.179948,0.20062 -0.345718,0.39569 -0.483692,0.58188 -0.06899,0.0931 -0.131075,0.18354 -0.184484,0.27182 -0.05341,0.0883 -0.09785,0.17417 -0.132291,0.25683 -0.06888,0.16531 -0.175816,0.32051 -0.264068,0.53382 -0.04413,0.10665 -0.08328,0.22766 -0.111104,0.37207 -0.02782,0.1444 -0.04444,0.31176 -0.04186,0.51108 0.0026,0.19932 0.02422,0.43036 0.07131,0.70177 0.04709,0.2714 0.119621,0.58347 0.225309,0.94412 0.105688,0.36065 0.244324,0.77007 0.422714,1.23714 0.178388,0.46706 0.396788,0.99168 0.661974,1.58233 0.265187,0.59064 0.577009,1.2473 0.943094,1.97869 0.366086,0.73139 0.786543,1.53742 1.267625,2.42673 0.481081,0.8893 1.022797,1.86205 1.632973,2.92643 0.61018,1.06438 1.288881,2.22068 2.042253,3.47731 0.188865,0.31502 0.426352,0.69489 0.624769,1.02268 -3.006381,-5.9602 -2.856725,-8.99906 -2.702161,-15.027 0.27128,-10.57992 6.239171,-11.39378 9.765813,-13.56402 3.526642,-2.17025 2.170472,-4.88306 2.984312,-6.78202 0.81384,-1.89896 11.936542,-3.25518 16.005741,-4.3403 4.069202,-1.08512 12.478581,-3.52654 16.005225,-5.42551 3.526643,-1.89896 10.037633,1.6278 10.037633,1.6278 0,0 -1.08549,-1.89921 1.89859,-3.25561 2.98408,-1.3564 19.5324,-0.54258 22.78776,-0.2713 3.25537,0.27128 21.97385,4.61198 21.97385,2.71301 0,-1.89896 17.09056,-0.81384 18.71824,0 1.62769,0.81385 9.49451,-3.79822 9.49451,-3.79822 0,0 -0.47472,-11.46158 1.9668,-14.98823 0.4046,-0.58442 0.62982,-0.95814 0.72451,-1.19527 z" />
    <path
       id="path23570"
       style="fill:#ffffff;fill-opacity:1;stroke:none;stroke-width:0.264583px;stroke-linecap:butt;stroke-linejoin:miter;stroke-opacity:1"
       d="m 37.411096,24.126 c -1.53379,0.01173 -3.338161,1.68958 -5.499923,5.885945 -9.223528,17.904491 -12.207629,36.080686 -13.56403,45.304212 -1.356401,9.223528 -1.084984,14.106305 -4.882906,16.547827 -3.7979229,2.441522 -9.7660857,2.9e-5 -13.29272834,7.053315 C -3.3551338,105.97058 -4.4400961,114.38044 -4.4400961,114.38044 L -5.254,212.58375 l 75.686852,0.5426 c -7.236497,-10.38788 -11.3041,-16.55266 -13.574365,-21.05349 -0.198417,-0.32779 -0.435904,-0.70766 -0.624769,-1.02268 -0.753372,-1.25663 -1.432073,-2.41293 -2.042253,-3.47731 -0.610176,-1.06438 -1.151892,-2.03713 -1.632973,-2.92643 -0.481082,-0.88931 -0.901539,-1.69534 -1.267625,-2.42673 -0.366085,-0.73139 -0.677907,-1.38805 -0.943094,-1.97869 -0.265186,-0.59065 -0.483586,-1.11527 -0.661974,-1.58233 -0.17839,-0.46707 -0.317026,-0.87649 -0.422714,-1.23714 -0.105688,-0.36065 -0.178223,-0.67272 -0.225309,-0.94412 -0.04709,-0.27141 -0.06873,-0.50245 -0.07131,-0.70177 -0.0026,-0.19932 0.01404,-0.36668 0.04186,-0.51108 0.02782,-0.14441 0.06698,-0.26542 0.111104,-0.37207 0.08825,-0.21331 0.195186,-0.36851 0.264068,-0.53382 0.03444,-0.0827 0.07888,-0.16855 0.132291,-0.25683 0.05341,-0.0883 0.115496,-0.17872 0.184484,-0.27182 0.137974,-0.18619 0.303744,-0.38126 0.483692,-0.58188 0.359897,-0.40122 0.776986,-0.82523 1.142048,-1.2454 0.182533,-0.21008 0.351919,-0.41912 0.495062,-0.62425 0.07157,-0.10257 0.13663,-0.20426 0.19327,-0.30437 0.05664,-0.10012 0.104828,-0.19873 0.143142,-0.29559 0.03831,-0.0969 0.0666,-0.19194 0.0832,-0.28474 0.0166,-0.0928 0.02142,-0.18337 0.01292,-0.2713 -0.0085,-0.0879 -0.03018,-0.17303 -0.06718,-0.25528 -0.037,-0.0823 -0.08925,-0.16143 -0.158131,-0.2372 -0.06888,-0.0758 -0.130463,-0.15655 -0.185002,-0.24184 -0.05454,-0.0853 -0.101835,-0.175 -0.142626,-0.2682 -0.04079,-0.0932 -0.0752,-0.18989 -0.102836,-0.28939 -0.02763,-0.0995 -0.0485,-0.20175 -0.06356,-0.30593 -0.03013,-0.20836 -0.03569,-0.42493 -0.01912,-0.64234 0.01657,-0.2174 0.05514,-0.43604 0.113689,-0.64957 0.05855,-0.21353 0.136758,-0.42183 0.232542,-0.61856 0.09579,-0.19674 0.209159,-0.38177 0.337447,-0.54881 0.06415,-0.0835 0.132223,-0.16249 0.203605,-0.23616 0.07138,-0.0737 0.146248,-0.14191 0.224277,-0.20412 0.07803,-0.0622 0.159313,-0.1183 0.243395,-0.16743 0.08408,-0.0491 0.170905,-0.0911 0.260451,-0.12558 0.08954,-0.0344 0.174093,-0.0852 0.254246,-0.14986 0.08015,-0.0646 0.155935,-0.14313 0.226862,-0.23461 0.07092,-0.0915 0.137096,-0.19558 0.198953,-0.31057 0.06186,-0.115 0.119131,-0.24103 0.172082,-0.37621 0.05295,-0.13518 0.101521,-0.27948 0.145728,-0.4315 0.04421,-0.15202 0.08427,-0.31196 0.11989,-0.47749 0.07125,-0.33105 0.125413,-0.68552 0.163296,-1.05058 0.03788,-0.36506 0.0593,-0.74073 0.06511,-1.11311 0.0058,-0.37238 -0.004,-0.7415 -0.02894,-1.09451 -0.02497,-0.353 -0.06491,-0.68989 -0.119373,-0.99683 -0.05446,-0.30695 -0.123533,-0.58385 -0.206189,-0.81804 -0.04133,-0.1171 -0.09047,-0.22933 -0.146759,-0.33642 -0.05629,-0.10708 -0.119656,-0.20923 -0.188103,-0.30695 -0.06845,-0.0977 -0.14233,-0.19109 -0.220142,-0.28009 -0.07781,-0.089 -0.159535,-0.17383 -0.243914,-0.25477 -0.168754,-0.16186 -0.347839,-0.30786 -0.526065,-0.44131 -0.178226,-0.13346 -0.355587,-0.25411 -0.520899,-0.36432 -0.165311,-0.11021 -0.31854,-0.21018 -0.448551,-0.30231 -0.130011,-0.0921 -0.236701,-0.17658 -0.309025,-0.2558 -0.03616,-0.0396 -0.06359,-0.0779 -0.08113,-0.11523 -0.01754,-0.0374 -0.02506,-0.0738 -0.02119,-0.10956 0.0039,-0.0357 0.01894,-0.0707 0.04703,-0.10542 0.02809,-0.0348 0.06892,-0.0694 0.124024,-0.10387 0.0551,-0.0344 0.104899,-0.0857 0.14986,-0.15244 0.04496,-0.0667 0.08504,-0.14869 0.121957,-0.2434 0.07383,-0.18942 0.133858,-0.43038 0.188103,-0.7059 0.108484,-0.55104 0.194688,-1.23977 0.325562,-1.92856 0.06543,-0.3444 0.142009,-0.68879 0.238228,-1.01596 0.04811,-0.16359 0.100727,-0.32312 0.159678,-0.47594 0.05895,-0.15283 0.12396,-0.29891 0.195856,-0.43667 0.07189,-0.13776 0.150778,-0.26712 0.237709,-0.38551 0.08693,-0.11838 0.182216,-0.2262 0.28629,-0.32091 0.104071,-0.0947 0.217236,-0.17615 0.340545,-0.24288 0.123312,-0.0667 0.256363,-0.11852 0.401011,-0.15296 0.144647,-0.0344 0.325091,-0.0923 0.53485,-0.17104 0.209761,-0.0787 0.449241,-0.1783 0.713136,-0.29508 0.527791,-0.23354 1.152946,-0.53703 1.831412,-0.88573 0.678465,-0.34871 1.409972,-0.74268 2.15129,-1.15704 0.741317,-0.41435 1.4923,-0.84901 2.208651,-1.27951 0.716349,-0.43049 1.398387,-0.85653 2.001944,-1.25367 0.301781,-0.19856 0.58366,-0.39008 0.840777,-0.57102 0.257114,-0.18095 0.489439,-0.35136 0.690914,-0.5085 0.201472,-0.15713 0.372092,-0.30075 0.506944,-0.42788 0.134853,-0.12713 0.233683,-0.23772 0.290939,-0.32866 0.02863,-0.0455 0.04709,-0.0862 0.05426,-0.12144 0.0072,-0.0353 0.0033,-0.0651 -0.0124,-0.0894 -0.01566,-0.0243 -0.04334,-0.0433 -0.0832,-0.0558 -0.03986,-0.0125 -0.09218,-0.0186 -0.157613,-0.0186 -0.13087,0 -0.227602,-0.01 -0.293523,-0.0274 -0.06592,-0.0178 -0.100899,-0.044 -0.108003,-0.0775 -0.0071,-0.0335 0.01385,-0.0745 0.05943,-0.12144 0.04558,-0.0469 0.115612,-0.0995 0.207738,-0.15761 0.184256,-0.11623 0.455464,-0.25313 0.789101,-0.40101 0.333634,-0.14788 0.729811,-0.30684 1.163751,-0.4687 0.433943,-0.16187 0.90596,-0.32652 1.391132,-0.48473 0.485172,-0.15821 0.983387,-0.3101 1.47071,-0.447 0.487326,-0.1369 0.96365,-0.25863 1.404049,-0.35657 0.440398,-0.0979 0.845192,-0.17209 1.18959,-0.21342 0.172201,-0.0207 0.358672,-0.0345 0.557591,-0.0424 0.198916,-0.008 0.410273,-0.01 0.632518,-0.007 0.444489,0.006 0.932066,0.0305 1.449525,0.0667 1.034918,0.0723 2.1887,0.18986 3.352766,0.28629 0.582033,0.0482 1.166823,0.0912 1.740463,0.12092 0.573638,0.0297 1.136192,0.046 1.674315,0.0408 0.269063,-0.003 0.531937,-0.0104 0.787032,-0.0248 0.255099,-0.0144 0.502264,-0.0354 0.740008,-0.0636 0.237742,-0.0282 0.466164,-0.0639 0.683162,-0.108 0.216998,-0.0441 0.422603,-0.0967 0.615466,-0.15865 0.771454,-0.24797 1.598102,-0.54373 2.429825,-0.83302 0.415862,-0.14465 0.833202,-0.28789 1.245402,-0.4222 0.412202,-0.13432 0.819372,-0.2598 1.215432,-0.37 0.396057,-0.11021 0.78082,-0.20518 1.148249,-0.27751 0.36743,-0.0723 0.717545,-0.12196 1.043864,-0.14262 0.163158,-0.0103 0.320233,-0.0134 0.470773,-0.008 0.15054,0.005 0.294621,0.0184 0.43098,0.0408 0.13636,0.0224 0.264887,0.0538 0.385508,0.0951 0.120618,0.0413 0.233093,0.0925 0.336412,0.15451 0.10332,0.062 0.211162,0.11771 0.323496,0.16743 0.112331,0.0497 0.229417,0.0936 0.349848,0.13229 0.240863,0.0775 0.496525,0.13438 0.764294,0.1757 0.267771,0.0413 0.547216,0.0672 0.834575,0.0827 0.287359,0.0155 0.583007,0.0207 0.882634,0.0207 0.599252,0 1.215623,-0.0207 1.820042,-0.0207 0.302213,0 0.60148,0.005 0.894004,0.0207 0.292529,0.0155 0.578179,0.0414 0.853699,0.0827 0.55103,0.0827 1.19859,0.2064 1.865,0.32866 0.33321,0.0611 0.67108,0.12185 1.00407,0.17673 0.33299,0.0549 0.66122,0.10423 0.97462,0.14211 0.3134,0.0379 0.61181,0.0643 0.88625,0.0744 0.27444,0.0101 0.52493,0.004 0.74104,-0.0248 0.10806,-0.0142 0.2073,-0.0336 0.29714,-0.0594 0.0898,-0.0259 0.17006,-0.0583 0.23926,-0.0972 0.0692,-0.0388 0.12749,-0.0843 0.17364,-0.13746 0.0461,-0.0532 0.0801,-0.11405 0.10077,-0.18293 0.0207,-0.0689 0.0313,-0.13524 0.0336,-0.19895 0.002,-0.0637 -0.003,-0.12491 -0.015,-0.18346 -0.023,-0.11709 -0.0691,-0.22344 -0.11989,-0.31987 -0.0508,-0.0964 -0.10634,-0.18262 -0.14831,-0.25839 -0.042,-0.0758 -0.0706,-0.14126 -0.0672,-0.19636 0.002,-0.0276 0.0116,-0.0525 0.0315,-0.0749 0.0199,-0.0224 0.0498,-0.0422 0.0925,-0.0594 0.0855,-0.0344 0.22124,-0.0586 0.4253,-0.0723 0.20405,-0.0138 0.47687,-0.0172 0.83612,-0.0103 0.35925,0.007 0.80496,0.0241 1.35599,0.0517 0.10873,0.005 0.24986,-0.004 0.416,-0.0248 0.16613,-0.0208 0.35728,-0.0528 0.56586,-0.0925 0.41715,-0.0794 0.90428,-0.18964 1.40146,-0.30076 0.49718,-0.11112 1.00439,-0.22323 1.46193,-0.30748 0.22876,-0.0421 0.4454,-0.0774 0.64182,-0.1018 0.19641,-0.0244 0.37282,-0.0378 0.52193,-0.0372 0.11436,4.4e-4 0.22404,0.009 0.33021,0.0253 0.10617,0.016 0.20854,0.039 0.30748,0.0677 0.19787,0.0575 0.38238,0.1375 0.55707,0.22944 0.17469,0.0919 0.33948,0.19545 0.49868,0.29973 0.15919,0.10427 0.31267,0.20938 0.46405,0.30386 0.15138,0.0945 0.30093,0.17826 0.45217,0.24081 0.0756,0.0313 0.15138,0.0573 0.22841,0.0765 0.077,0.0191 0.15522,0.0314 0.23461,0.0357 0.0794,0.004 0.16016,5.1e-4 0.24288,-0.0129 0.0827,-0.0134 0.16724,-0.0364 0.25425,-0.0703 0.087,-0.0339 0.17646,-0.0783 0.26872,-0.1354 0.0922,-0.0571 0.1873,-0.12678 0.28576,-0.2098 0.0323,-0.0273 0.0859,-0.052 0.15814,-0.0749 0.0722,-0.0229 0.16326,-0.044 0.27078,-0.0631 0.21504,-0.038 0.49586,-0.0686 0.82476,-0.0935 0.65779,-0.0499 1.50688,-0.0769 2.40088,-0.0946 0.89401,-0.0176 1.83326,-0.0259 2.67116,-0.0382 0.8379,-0.0123 1.57448,-0.0286 2.06396,-0.0625 0.107,-0.007 0.22584,-0.0245 0.35501,-0.0496 0.12918,-0.0251 0.26898,-0.0581 0.41858,-0.0977 0.2992,-0.0791 0.63727,-0.18395 1.00769,-0.30127 0.37042,-0.11732 0.77277,-0.24723 1.20044,-0.37672 0.42768,-0.12949 0.8809,-0.25853 1.35186,-0.37414 0.47096,-0.11561 0.96009,-0.21783 1.46038,-0.29352 0.25014,-0.0378 0.50272,-0.069 0.75757,-0.092 0.25486,-0.023 0.51164,-0.038 0.76946,-0.0429 0.25783,-0.005 0.51662,5.4e-4 0.77567,0.0171 0.25904,0.0165 0.51869,0.0441 0.77721,0.0853 0.25852,0.0411 0.51632,0.0958 0.77256,0.16485 0.25625,0.069 0.51052,0.15253 0.76275,0.2527 0.0705,0.028 0.16569,0.0498 0.28267,0.0661 0.11698,0.0163 0.25595,0.0269 0.41341,0.0331 0.31492,0.0123 0.70491,0.006 1.14567,-0.0134 0.44075,-0.0195 0.93205,-0.0522 1.45056,-0.0915 0.5185,-0.0393 1.06412,-0.0852 1.6123,-0.13229 1.09635,-0.0941 2.20406,-0.19184 3.13056,-0.24546 0.46325,-0.0268 0.88124,-0.0426 1.22989,-0.0413 0.17433,6.3e-4 0.33101,0.006 0.46768,0.0155 0.13666,0.01 0.25324,0.0248 0.34623,0.0455 0.37195,0.0827 0.80216,0.17249 1.27072,0.26406 0.46857,0.0916 0.97542,0.18492 1.50017,0.27337 0.52475,0.0884 1.06716,0.17219 1.60765,0.24546 0.5405,0.0733 1.07893,0.13586 1.59474,0.1819 0.5158,0.046 1.00918,0.0754 1.45986,0.0822 0.22534,0.003 0.43982,9.4e-4 0.6413,-0.008 0.20148,-0.009 0.3902,-0.0237 0.56276,-0.046 0.17256,-0.0223 0.32908,-0.0515 0.46767,-0.0889 0.13859,-0.0374 0.25907,-0.083 0.35863,-0.13694 0.0996,-0.054 0.1781,-0.11655 0.23358,-0.18862 0.0277,-0.036 0.0499,-0.0744 0.0656,-0.11524 0.0158,-0.0408 0.0252,-0.0839 0.0284,-0.1297 0.0109,-0.15774 0.0413,-0.30073 0.0889,-0.42995 0.0476,-0.12923 0.1127,-0.24493 0.19378,-0.34778 0.0811,-0.10286 0.17793,-0.19267 0.28939,-0.27131 0.11146,-0.0786 0.23752,-0.14602 0.37621,-0.20257 0.13868,-0.0565 0.28991,-0.1024 0.45268,-0.13901 0.16277,-0.0366 0.33667,-0.0639 0.52038,-0.0827 0.18372,-0.0188 0.37726,-0.0294 0.57878,-0.0326 0.20152,-0.003 0.41117,0.001 0.62735,0.0114 0.43237,0.0207 0.89104,0.0663 1.36322,0.12816 0.47219,0.0619 0.95802,0.14038 1.44488,0.22634 0.97372,0.17192 1.95176,0.37471 2.83342,0.54002 0.22041,0.0413 0.44013,0.0674 0.66042,0.0801 0.2203,0.0127 0.44093,0.0116 0.66249,-0.001 0.22157,-0.0127 0.44447,-0.0371 0.6687,-0.0718 0.22423,-0.0347 0.44971,-0.0793 0.67799,-0.13281 0.22828,-0.0535 0.45926,-0.11558 0.69298,-0.18449 0.23372,-0.0689 0.47052,-0.14477 0.71107,-0.22582 0.4811,-0.16211 0.9772,-0.34505 1.49397,-0.53589 0.51676,-0.19084 1.05393,-0.38976 1.61747,-0.58291 0.56353,-0.19314 1.15314,-0.3808 1.77457,-0.54983 0.31071,-0.0845 0.62977,-0.16418 0.95704,-0.23772 0.32727,-0.0735 0.66299,-0.14074 1.00821,-0.19999 0.34522,-0.0592 0.69998,-0.11078 1.06454,-0.15244 0.36455,-0.0417 0.73868,-0.0738 1.12396,-0.0946 0.18091,-0.01 0.36666,-0.0333 0.55604,-0.0692 0.18938,-0.0359 0.3827,-0.0841 0.57826,-0.14315 0.19555,-0.0591 0.39329,-0.1286 0.59273,-0.20774 0.19943,-0.0791 0.40048,-0.16791 0.60151,-0.26406 0.20102,-0.0962 0.40222,-0.19995 0.60255,-0.31006 0.20032,-0.11012 0.39953,-0.22625 0.59686,-0.34727 0.39466,-0.24203 0.78138,-0.50318 1.15031,-0.77049 0.36894,-0.26732 0.72055,-0.5411 1.04542,-0.80926 0.32487,-0.26815 0.62275,-0.5306 0.88522,-0.77514 0.26247,-0.24455 0.48954,-0.47117 0.67127,-0.66766 0.0489,-0.0528 0.0658,-0.0825 0.10801,-0.13074 0.47668,-1.19382 -2.68648,1.44286 -6.76031,2.34817 -4.88305,1.08512 -26.58568,2.4415 -36.08049,-0.2713 -9.49481,-2.7128 -17.9045,-7.05314 -20.07474,-4.8829 -2.17024,2.17024 -9.76594,3.25555 -11.39362,2.44171 -1.62768,-0.81384 -9.49481,-1.89901 -13.292733,-0.54261 -3.797924,1.3564 -8.952425,-3.25561 -8.952425,-3.25561 0,0 -2.984072,-15.19155 -6.510713,-18.17564 -3.526642,-2.98407 -9.49451,-17.361612 -9.49451,-22.515936 0,-5.154324 -8.680942,-10.580338 -13.021429,-11.936738 -4.340484,-1.356402 -8.286967,-10.967574 -6.510713,-16.547827 0.835906,-2.626069 0.248732,-3.914344 0.0677,-4.069519 0,0 -4.679534,4.883351 -7.663613,-2.712495 C 44.546956,41.830584 42.42141,24.088324 37.41103,24.12666 Z" />
    <path
       id="path5993"
       style="fill:#f0f0f0;fill-opacity:1;stroke:none;stroke-width:0.264583px;stroke-linecap:butt;stroke-linejoin:miter;stroke-opacity:1"
       d="M 276.54306,157.06474 276.4423,156.934 c -0.0172,0.12732 -0.042,0.25394 -0.0739,0.38034 -0.0319,0.1264 -0.0707,0.25237 -0.11629,0.37775 -0.0456,0.12538 -0.0978,0.2504 -0.15605,0.37466 -0.0583,0.12426 -0.12271,0.248 -0.19275,0.37103 -0.0701,0.12304 -0.14602,0.24519 -0.22688,0.36691 -0.0808,0.12171 -0.16666,0.24299 -0.25733,0.36328 -0.0907,0.1203 -0.18624,0.23986 -0.28578,0.35864 -0.0995,0.11877 -0.20315,0.23683 -0.31057,0.35398 -0.10744,0.11715 -0.21844,0.23339 -0.33279,0.34882 -0.11435,0.11543 -0.23212,0.23004 -0.35245,0.34364 -0.12031,0.11361 -0.24313,0.22628 -0.36843,0.33797 -0.12534,0.11168 -0.25308,0.2221 -0.38243,0.33176 -0.25866,0.21932 -0.52425,0.43481 -0.79322,0.64544 -0.26898,0.21063 -0.54131,0.4164 -0.81288,0.61753 -0.27154,0.20114 -0.54232,0.39724 -0.80873,0.58808 -0.26641,0.19084 -0.52834,0.37629 -0.78187,0.55604 -0.2535,0.17975 -0.49884,0.35408 -0.73173,0.52193 -0.23289,0.16785 -0.45331,0.32957 -0.65783,0.48473 -0.20455,0.15515 -0.39278,0.30379 -0.56121,0.44545 -0.0842,0.0708 -0.16346,0.13992 -0.2372,0.20722 -0.0738,0.0673 -0.14235,0.13269 -0.20466,0.19637 -0.0623,0.0637 -0.11856,0.12557 -0.16846,0.18552 -0.0499,0.06 -0.0932,0.11802 -0.12969,0.17415 -0.0365,0.0561 -0.0662,0.11006 -0.0884,0.16226 -0.0222,0.0522 -0.037,0.10272 -0.0439,0.1509 -0.007,0.0482 -0.0198,0.0946 -0.0388,0.14004 -0.019,0.0454 -0.0441,0.0899 -0.0744,0.13281 -0.0304,0.0429 -0.066,0.0846 -0.10697,0.12505 -0.041,0.0405 -0.0871,0.0797 -0.13798,0.11783 -0.0509,0.0382 -0.10692,0.0751 -0.16693,0.1111 -0.06,0.036 -0.12432,0.0714 -0.19274,0.10542 -0.0684,0.0341 -0.14095,0.067 -0.21704,0.0992 -0.0761,0.0322 -0.15574,0.0635 -0.23876,0.0941 -0.16603,0.0611 -0.34502,0.11893 -0.53433,0.17415 -0.18931,0.0552 -0.38862,0.10759 -0.59531,0.15813 -0.20669,0.0505 -0.42058,0.0992 -0.63872,0.14625 -0.21814,0.047 -0.44088,0.0927 -0.66456,0.13746 -0.44735,0.0895 -0.89975,0.17571 -1.33377,0.26303 -0.21701,0.0437 -0.42926,0.0874 -0.63407,0.13229 -0.2048,0.0449 -0.40191,0.0907 -0.58859,0.13798 -0.18669,0.0473 -0.3629,0.0964 -0.52555,0.14728 -0.0813,0.0255 -0.15937,0.0514 -0.23358,0.078 -0.0742,0.0266 -0.14449,0.0538 -0.21084,0.0816 -0.0663,0.0279 -0.12879,0.056 -0.18655,0.0853 -0.0577,0.0293 -0.11126,0.0596 -0.15968,0.0904 -0.0484,0.0308 -0.0919,0.0625 -0.13022,0.0951 -0.0384,0.0326 -0.0712,0.0658 -0.0987,0.10025 -0.0275,0.0344 -0.0524,0.0695 -0.0749,0.1049 -0.0225,0.0354 -0.0427,0.0712 -0.0605,0.10749 -0.0177,0.0363 -0.0333,0.073 -0.0465,0.11007 -0.0132,0.037 -0.0245,0.0745 -0.0336,0.11214 -0.009,0.0376 -0.0156,0.0756 -0.0207,0.11369 -0.005,0.0381 -0.008,0.0763 -0.01,0.11472 -0.003,0.0769 -0.0342,0.17219 -0.0243,0.24962 0.0103,0.0774 0.009,0.20041 0.03,0.2773 0.0213,0.0769 0.11077,0.16218 0.14087,0.23746 0.0301,0.0753 0.0368,0.16773 0.0736,0.24031 0.0368,0.0726 0.0675,0.16168 0.10877,0.23051 0.0413,0.0688 0.0931,0.12642 0.13669,0.19041 0.0437,0.064 0.22092,0.32147 0.14989,0.33737 0.14109,0.15662 0.3275,0.27564 0.40335,0.33112 0.0759,0.0555 0.0412,0.0474 -0.25995,-0.0501 -0.11872,-0.0353 -0.24358,-0.14863 -0.43328,-0.19181 -0.18969,-0.0432 -0.41681,-0.0891 -0.68522,-0.13384 -0.13421,-0.0224 -0.27875,-0.0446 -0.43409,-0.0661 -0.15533,-0.0215 -0.32176,-0.0421 -0.49919,-0.062 -0.17744,-0.0199 -0.36587,-0.0389 -0.56637,-0.0563 -0.20051,-0.0174 -0.41315,-0.0333 -0.63769,-0.0476 -0.22454,-0.0142 -0.46101,-0.0265 -0.71055,-0.0367 -0.24954,-0.0101 -0.51204,-0.018 -0.78755,-0.0232 -0.27551,-0.005 -0.56417,-0.008 -0.86662,-0.008 -0.30244,4e-4 -0.61842,0.004 -0.94877,0.0109 -0.33036,0.007 -0.6814,0.0114 -1.04955,0.0139 -0.36816,0.002 -0.75343,0.003 -1.15239,5.2e-4 -0.39896,-0.002 -0.81176,-0.006 -1.23455,-0.0129 -0.42278,-0.007 -0.85591,-0.0158 -1.29553,-0.0274 -0.43961,-0.0116 -0.88586,-0.0257 -1.33531,-0.0424 -0.44946,-0.0166 -0.90214,-0.0361 -1.35444,-0.0579 -0.45231,-0.0218 -0.90421,-0.0462 -1.35238,-0.0734 -0.44816,-0.0272 -0.8926,-0.0572 -1.32963,-0.0899 -0.43703,-0.0327 -0.8668,-0.0681 -1.28571,-0.10645 -0.41891,-0.0384 -0.82679,-0.0793 -1.2206,-0.12351 -0.3938,-0.0442 -0.77311,-0.0914 -1.13481,-0.14159 -0.3617,-0.0502 -0.70575,-0.10333 -1.02836,-0.15968 -0.16131,-0.0282 -0.31745,-0.0576 -0.46768,-0.0873 -0.15022,-0.0298 -0.29478,-0.0601 -0.43304,-0.0915 -0.13827,-0.0313 -0.26989,-0.0632 -0.39533,-0.0961 -0.12543,-0.0329 -0.24432,-0.0667 -0.35605,-0.10129 -0.11173,-0.0346 -0.21652,-0.0702 -0.31368,-0.10645 -0.0971,-0.0362 -0.18701,-0.0732 -0.26871,-0.1111 -0.0817,-0.0379 -0.15529,-0.0767 -0.22066,-0.11628 -0.0654,-0.0396 -0.12235,-0.0801 -0.17053,-0.12144 -0.0482,-0.0413 -0.0987,-0.0812 -0.15193,-0.11989 -0.0532,-0.0387 -0.10889,-0.0759 -0.16692,-0.11213 -0.058,-0.0362 -0.11878,-0.0712 -0.18138,-0.10491 -0.0626,-0.0337 -0.12736,-0.0664 -0.1943,-0.0977 -0.13389,-0.0626 -0.27599,-0.12057 -0.42582,-0.17364 -0.14982,-0.0531 -0.3074,-0.10133 -0.47129,-0.14521 -0.16388,-0.0439 -0.33398,-0.0833 -0.51004,-0.11834 -0.17607,-0.035 -0.35779,-0.0655 -0.54416,-0.092 -0.18636,-0.0265 -0.37779,-0.0489 -0.57257,-0.0672 -0.19478,-0.0182 -0.39297,-0.032 -0.59428,-0.0424 -0.20131,-0.0103 -0.40537,-0.0169 -0.61133,-0.0196 -0.20596,-0.003 -0.41397,-0.002 -0.6227,0.003 -0.20873,0.005 -0.41825,0.0128 -0.62787,0.0243 -0.20962,0.0114 -0.41925,0.0264 -0.62787,0.0444 -0.20862,0.0181 -0.41644,0.0392 -0.62218,0.0636 -0.20575,0.0244 -0.40932,0.0518 -0.6103,0.0822 -0.20099,0.0303 -0.39942,0.0633 -0.59377,0.0992 -0.19434,0.036 -0.38468,0.075 -0.5705,0.11627 -0.0929,0.0207 -0.1866,0.0368 -0.28112,0.0491 -0.0945,0.0123 -0.18986,0.0205 -0.28577,0.0248 -0.0959,0.004 -0.19283,0.005 -0.28991,0.002 -0.0971,-0.003 -0.19447,-0.0103 -0.29249,-0.0207 -0.098,-0.0104 -0.19633,-0.0243 -0.29507,-0.0414 -0.0987,-0.0171 -0.19789,-0.0371 -0.29714,-0.0605 -0.0992,-0.0234 -0.19865,-0.0499 -0.29817,-0.0791 -0.0995,-0.0292 -0.19911,-0.0615 -0.29869,-0.0961 -0.0996,-0.0346 -0.19928,-0.0715 -0.29869,-0.1111 -0.0994,-0.0396 -0.19863,-0.0819 -0.29766,-0.12609 -0.099,-0.0442 -0.19768,-0.0907 -0.2961,-0.13902 -0.0984,-0.0484 -0.19645,-0.0988 -0.29404,-0.15089 -0.19518,-0.1042 -0.38877,-0.21516 -0.57929,-0.33176 -0.19053,-0.1166 -0.37814,-0.23872 -0.56224,-0.36432 -0.18411,-0.1256 -0.36464,-0.2548 -0.54054,-0.38602 -0.17591,-0.13123 -0.34722,-0.26446 -0.51315,-0.39791 -0.16593,-0.13346 -0.32641,-0.26716 -0.48059,-0.39946 -0.15418,-0.1323 -0.30221,-0.26344 -0.44287,-0.39119 -0.14065,-0.12776 -0.27409,-0.25225 -0.39946,-0.37207 -0.12535,-0.11982 -0.24259,-0.23463 -0.35088,-0.34313 -0.21658,-0.21701 -0.3972,-0.40825 -0.53485,-0.55966 -0.0688,-0.0757 -0.13237,-0.1519 -0.19275,-0.22841 -0.0604,-0.0765 -0.11741,-0.15326 -0.17312,-0.23047 -0.11141,-0.15443 -0.21751,-0.31007 -0.33279,-0.46664 -0.0576,-0.0783 -0.11765,-0.15699 -0.18191,-0.23565 -0.0643,-0.0787 -0.13259,-0.15723 -0.20722,-0.23616 -0.0746,-0.0789 -0.15514,-0.1581 -0.24391,-0.23719 -0.0888,-0.0791 -0.18581,-0.15805 -0.29249,-0.2372 -0.10667,-0.0791 -0.22305,-0.15862 -0.3514,-0.23771 -0.12834,-0.0791 -0.26842,-0.15775 -0.42219,-0.23668 -0.15378,-0.0789 -0.32139,-0.15801 -0.50437,-0.23668 -0.18297,-0.0787 -0.38144,-0.15735 -0.59737,-0.23564 -0.21594,-0.0783 -0.44963,-0.15629 -0.70229,-0.2341 -0.25266,-0.0778 -0.52437,-0.15533 -0.81752,-0.23254 -0.29315,-0.0772 -0.60725,-0.15397 -0.94465,-0.23048 -0.22799,-0.0517 -0.4826,-0.10317 -0.73225,-0.15451 -0.3265,0.11359 -0.54002,0.1974 -0.54002,0.1974 0,0 0,0.17888 1.07332,1.07332 1.07333,0.89444 -2.32525,5.18776 -3.75636,11.62772 2.14666,1.43109 3.75636,6.97632 3.75636,6.97632 0.15352,0.52104 0.23414,1.06215 0.47129,1.52859 3.67722,7.23247 43.27642,10.02367 60.81076,3.07733 0,0 0.99735,-4.31804 5.08548,-11.04584 0,0 -3.46748,-2.96837 -2.32545,-11.62771 -0.53168,-3.01286 -1.58774,-3.39437 -0.91157,-5.48856 z"
       sodipodi:nodetypes="ccsssssssssssssssssssssssscscssscscssssssscscssssscsccccssssscscsssssccccccccscsssssssccsssssssssssssscccsccscccscsssssssscssssssssssssssssssssssssccsccscccsc" />
    <path
       id="path19101"
       style="fill:#ffffff;fill-opacity:1;stroke:none;stroke-width:0.999999px;stroke-linecap:butt;stroke-linejoin:miter;stroke-opacity:1"
       d="m 923.9707,428.8125 c -2.09559,-0.0725 -2.87621,6.08919 -7.16406,12.85742 -5.18064,8.1775 -22.31182,37.86261 -27.7207,39.21485 -5.40888,1.3522 -12.84634,31.10024 -15.55078,33.80468 -2.70444,2.70444 -15.55041,9.4665 -20.28321,6.08594 -4.73276,-3.38056 -12.8457,6.08399 -12.8457,6.08399 0,0 5.40918,4.05724 7.4375,6.76171 2.02832,2.70444 6.75946,10.1425 7.43555,26.36914 0.67612,16.22669 -0.67507,23.66301 -6.08399,33.80469 -5.40888,10.14165 -24.34078,12.17022 -30.42578,11.49414 -4.41518,-0.49058 -10.92269,1.49957 -14.18555,2.63477 0.94355,0.19405 1.90585,0.38857 2.76758,0.58398 1.27521,0.28918 2.46236,0.57927 3.57032,0.8711 1.10795,0.29182 2.13491,0.58484 3.08984,0.8789 0.95493,0.29406 1.83816,0.58888 2.6543,0.88477 0.81613,0.29589 1.56625,0.59331 2.25781,0.89062 0.69156,0.29731 1.32504,0.59621 1.90625,0.89453 0.58121,0.29833 1.11061,0.5956 1.5957,0.89454 0.48509,0.29893 0.92494,0.59929 1.32813,0.89843 0.40319,0.29914 0.76995,0.59755 1.10547,0.89649 0.33551,0.29893 0.6398,0.59815 0.92187,0.89648 0.28207,0.29833 0.54035,0.59527 0.7832,0.89258 0.24285,0.29731 0.46965,0.59474 0.6875,0.89063 0.43571,0.59177 0.83674,1.18002 1.25782,1.76367 0.21053,0.29182 0.42608,0.58191 0.65429,0.87109 0.22822,0.28918 0.4684,0.57715 0.72852,0.86328 0.52024,0.57227 1.20291,1.29504 2.02148,2.11524 0.40929,0.41009 0.85237,0.844 1.32617,1.29687 0.47381,0.45288 0.97815,0.9234 1.50977,1.40625 0.53162,0.48285 1.09109,0.97849 1.67383,1.47852 0.58273,0.50002 1.18927,1.00537 1.8164,1.50976 0.62714,0.50439 1.27462,1.00795 1.93946,1.50391 0.66483,0.49596 1.34714,0.98426 2.04297,1.45898 0.69582,0.47473 1.40489,0.93627 2.125,1.37696 0.72011,0.44068 1.45176,0.86006 2.18945,1.2539 0.36884,0.19692 0.73935,0.38751 1.11133,0.57031 0.37198,0.18281 0.74486,0.3583 1.11914,0.5254 0.37428,0.16709 0.74926,0.32677 1.125,0.47656 0.37574,0.14978 0.75254,0.28905 1.1289,0.41992 0.37637,0.13087 0.75276,0.25292 1.12891,0.36328 0.37615,0.11036 0.75186,0.21058 1.12695,0.29883 0.3751,0.0883 0.74985,0.16398 1.12305,0.22851 0.3732,0.0645 0.74476,0.11703 1.11523,0.15626 0.37048,0.0392 0.73857,0.0658 1.10547,0.0781 0.3669,0.0123 0.73321,0.0104 1.09571,-0.006 0.36249,-0.0162 0.72283,-0.0474 1.08008,-0.0937 0.35724,-0.0463 0.71133,-0.10751 1.0625,-0.18555 0.70233,-0.15607 1.4217,-0.30349 2.15624,-0.43945 0.73455,-0.13595 1.48451,-0.26038 2.24415,-0.375 0.75963,-0.11462 1.52901,-0.21849 2.30664,-0.31055 0.77762,-0.0921 1.56306,-0.17195 2.35156,-0.24023 0.78849,-0.0683 1.58079,-0.12468 2.37305,-0.16797 0.79225,-0.0433 1.58414,-0.0747 2.37304,-0.0918 0.7889,-0.0171 1.57508,-0.0201 2.35352,-0.01 0.77843,0.0104 1.54969,0.0352 2.31054,0.0742 0.76086,0.039 1.50993,0.0913 2.2461,0.16015 0.73616,0.0689 1.4597,0.15392 2.16406,0.25391 0.70436,0.1 1.3912,0.21536 2.05664,0.34766 0.66545,0.13229 1.30832,0.28143 1.92774,0.44726 0.61941,0.16583 1.21497,0.34825 1.78125,0.54883 0.56627,0.20058 1.10335,0.4197 1.60937,0.65625 0.25301,0.11827 0.49776,0.24164 0.73438,0.36914 0.23661,0.1275 0.46622,0.25962 0.68554,0.39648 0.21933,0.13687 0.42971,0.27744 0.63086,0.42383 0.20115,0.1464 0.39214,0.29705 0.57422,0.45313 0.18209,0.15607 0.39744,0.30937 0.64453,0.45898 0.24709,0.14961 0.52519,0.29624 0.83399,0.43946 0.30879,0.14321 0.64843,0.28301 1.01562,0.41992 0.36719,0.1369 0.76326,0.27167 1.18555,0.40234 0.42229,0.13067 0.87161,0.2583 1.3457,0.38281 0.47409,0.12451 0.97156,0.24486 1.49414,0.36328 0.52258,0.11843 1.06895,0.23329 1.63672,0.34571 0.56777,0.11242 1.15792,0.22359 1.76758,0.33008 1.21932,0.21297 2.51966,0.4138 3.88672,0.60351 1.36706,0.18971 2.80068,0.36811 4.28906,0.53516 1.48839,0.16705 3.02999,0.3218 4.61328,0.46679 1.58329,0.145 3.2076,0.27879 4.85938,0.40235 1.65177,0.12356 3.33155,0.23711 5.02539,0.33984 1.69384,0.10273 3.40184,0.19484 5.11133,0.27735 1.70948,0.0825 3.42042,0.15585 5.11914,0.21875 1.69871,0.0629 3.38534,0.11626 5.04687,0.16015 1.66153,0.0439 3.29857,0.078 4.89649,0.10352 1.59792,0.0255 3.15812,0.0411 4.66601,0.0488 1.50789,0.008 2.96402,0.007 4.35547,-0.002 1.39145,-0.009 2.71821,-0.0267 3.9668,-0.0527 1.24858,-0.026 2.44282,-0.0395 3.58593,-0.041 1.14312,-0.002 2.23409,0.009 3.2754,0.0293 1.0413,0.0199 2.03341,0.0496 2.97656,0.0879 0.94314,0.0383 1.8369,0.085 2.68554,0.13867 0.84865,0.0536 1.65235,0.11374 2.41016,0.17969 0.75781,0.0659 1.47,0.1377 2.14063,0.21289 0.67062,0.0752 1.29961,0.15299 1.88671,0.23438 0.58711,0.0814 1.13339,0.16546 1.64063,0.25 1.01448,0.16907 1.87288,0.34246 2.58984,0.50585 0.71697,0.16339 1.29153,0.31786 1.74024,0.45118 0.44871,0.13331 0.77074,0.24537 0.98047,0.32421 0.20972,0.0788 0.30664,0.12305 0.30664,0.12305 0,0 -0.10372,-0.0966 -0.2793,-0.27539 -0.17558,-0.17883 -0.42285,-0.43852 -0.70898,-0.76367 -0.28614,-0.32515 -0.61171,-0.71534 -0.94336,-1.1543 -0.16583,-0.21948 -0.33304,-0.45152 -0.49805,-0.69336 -0.16502,-0.24183 -0.32635,-0.49378 -0.48242,-0.7539 -0.15608,-0.26013 -0.30631,-0.52839 -0.44531,-0.80274 -0.13901,-0.27435 -0.26706,-0.55533 -0.38086,-0.83984 -0.11381,-0.28451 -0.2125,-0.57268 -0.29297,-0.86328 -0.0805,-0.29061 -0.14263,-0.58432 -0.18164,-0.87696 -0.039,-0.29263 -0.0555,-0.58439 -0.0449,-0.875 0.005,-0.1453 0.0179,-0.28956 0.0371,-0.43359 0.0192,-0.14403 0.044,-0.28743 0.0781,-0.42969 0.0341,-0.14225 0.0769,-0.28386 0.12695,-0.42383 0.0501,-0.13996 0.10872,-0.27884 0.17578,-0.41601 0.0671,-0.13717 0.14347,-0.27238 0.22852,-0.40625 0.0851,-0.13387 0.17915,-0.26642 0.2832,-0.39648 0.10405,-0.13007 0.22813,-0.25589 0.37305,-0.37891 0.14492,-0.12303 0.30919,-0.24283 0.49219,-0.35938 0.183,-0.11654 0.38523,-0.23117 0.60351,-0.34179 0.21829,-0.11063 0.45431,-0.217 0.70508,-0.32227 0.25077,-0.10527 0.51641,-0.20813 0.79688,-0.30859 0.28046,-0.10047 0.57544,-0.1987 0.88281,-0.29492 0.61474,-0.19245 1.28074,-0.37781 1.98633,-0.55664 0.70558,-0.17884 1.45054,-0.3518 2.2246,-0.52149 0.77407,-0.16969 1.57629,-0.33498 2.39649,-0.5 1.64039,-0.33003 3.35022,-0.65598 5.04101,-0.99414 0.8454,-0.16908 1.68726,-0.34171 2.51172,-0.51953 0.82447,-0.17782 1.63287,-0.36171 2.41407,-0.55274 0.7812,-0.19102 1.5345,-0.38894 2.25,-0.59765 0.7155,-0.20871 1.392,-0.42735 2.0195,-0.65821 0.3138,-0.11542 0.6148,-0.23366 0.9024,-0.35546 0.2876,-0.12181 0.5617,-0.24626 0.8203,-0.375 0.2586,-0.12874 0.5017,-0.26221 0.7285,-0.39844 0.2268,-0.13624 0.4386,-0.27564 0.6309,-0.41992 0.1922,-0.14429 0.3666,-0.29242 0.5215,-0.44532 0.1548,-0.15289 0.2895,-0.31058 0.4043,-0.47265 0.1147,-0.16207 0.2094,-0.33016 0.2812,-0.50195 0.072,-0.1718 0.1205,-0.34722 0.1465,-0.5293 0.026,-0.18209 0.082,-0.37302 0.166,-0.57031 0.084,-0.1973 0.1959,-0.40115 0.334,-0.61329 0.138,-0.21213 0.3016,-0.43161 0.4902,-0.6582 0.1886,-0.22659 0.4012,-0.4605 0.6367,-0.70117 0.2355,-0.24067 0.4947,-0.48781 0.7735,-0.74219 0.2787,-0.25437 0.5782,-0.51551 0.8965,-0.7832 0.6366,-0.53539 1.348,-1.09719 2.1211,-1.6836 0.773,-0.5864 1.6061,-1.19763 2.4863,-1.83203 0.8802,-0.6344 1.8075,-1.29329 2.7656,-1.97265 0.9582,-0.67936 1.9482,-1.38027 2.9551,-2.10156 1.0069,-0.7213 2.0303,-1.46246 3.0566,-2.22266 1.0264,-0.7602 2.0557,-1.5379 3.0723,-2.33399 1.0166,-0.79608 2.0204,-1.61052 2.998,-2.43945 0.4889,-0.41447 0.9717,-0.83179 1.4454,-1.2539 0.4736,-0.42212 0.9378,-0.84797 1.3925,-1.27735 0.4548,-0.42938 0.8999,-0.86256 1.3321,-1.29883 0.4322,-0.43626 0.8517,-0.87558 1.2578,-1.31836 0.406,-0.44277 0.7976,-0.88898 1.1738,-1.33789 0.3762,-0.4489 0.7374,-0.90081 1.0801,-1.35547 0.3427,-0.45465 0.6671,-0.91301 0.9726,-1.37304 0.3056,-0.46004 0.5927,-0.92169 0.8575,-1.38672 0.2647,-0.46503 0.5082,-0.9327 0.7285,-1.40234 0.2203,-0.46965 0.4176,-0.94214 0.5898,-1.41602 0.1722,-0.47388 0.319,-0.94999 0.4395,-1.42774 0.1204,-0.47774 0.2142,-0.95627 0.2793,-1.4375 l 0.3808,0.49415 c 0.024,-0.0742 0.039,-0.13951 0.064,-0.21485 0.6489,-2.65954 -10.8468,-3.46337 -25.6914,-5.4082 -11.4939,-1.3522 -18.2552,-13.52336 -19.60746,-25.69336 -1.35224,-12.16997 17.57706,-23.66338 19.60546,-33.12891 2.0283,-9.46556 3.3809,-18.93164 3.3809,-18.93164 0,0 -11.4934,4.05732 -25.01566,-1.35156 -13.5222,-5.40888 -39.40283,-18.76892 -54.76562,-48.00391 -12.76562,-24.2926 -16.82812,-32.38265 -19.20313,-32.46484 z"
       transform="scale(0.26458333)" />
    <path
       id="path20643"
       style="fill:#ffffff;fill-opacity:1;stroke:none;stroke-width:0.999999px;stroke-linecap:butt;stroke-linejoin:miter;stroke-opacity:1"
       d="m 1331.0996,454.57422 c -0.1406,0.0426 -0.3024,0.3855 -0.5137,1.125 -1.3522,4.7328 -18.2543,14.87462 -33.1289,19.60742 -14.8743,4.73276 -77.0777,-8.7897 -81.8105,-11.49414 -4.7327,-2.70444 -26.3666,-5.41016 -23.6621,-1.35352 2.7044,4.05668 -5.4092,10.14164 -11.4942,8.11329 -6.085,-2.02833 -26.3685,8.79029 -35.834,14.19921 -9.4655,5.40889 -29.7496,0.67642 -38.539,-0.67578 -8.7895,-1.35224 -19.6074,7.4375 -19.6074,7.4375 0.6972,-0.10564 1.3705,-0.19921 2.0214,-0.28125 0.651,-0.082 1.2797,-0.15413 1.8868,-0.21289 0.6071,-0.0588 1.194,-0.10481 1.7597,-0.14062 0.5658,-0.0358 1.1099,-0.061 1.6368,-0.0742 0.5268,-0.0132 1.0349,-0.0149 1.5253,-0.006 0.4905,0.009 0.9653,0.0295 1.4219,0.0606 0.4566,0.031 0.8952,0.0723 1.3203,0.125 0.4252,0.0527 0.8363,0.11745 1.2325,0.1914 0.3961,0.0739 0.7787,0.15704 1.1484,0.25196 0.3697,0.0949 0.7266,0.20085 1.0723,0.3164 0.3456,0.11555 0.6798,0.24111 1.0039,0.37695 0.3241,0.13585 0.6383,0.28168 0.9433,0.4375 0.3051,0.15583 0.6002,0.32259 0.8887,0.49805 0.2884,0.17546 0.5694,0.35992 0.8437,0.55469 0.2744,0.19477 0.542,0.39953 0.8047,0.61328 0.2627,0.21375 0.5199,0.43752 0.7735,0.66992 0.507,0.46483 1.0626,1.02449 1.6562,1.64844 0.5936,0.62395 1.2258,1.3122 1.8887,2.0332 0.6629,0.72101 1.3552,1.47447 2.0703,2.23047 0.7151,0.756 1.4531,1.51326 2.2031,2.24219 0.3751,0.36447 0.7523,0.7223 1.1328,1.06836 0.3806,0.34606 0.7645,0.6801 1.1485,1 0.3839,0.3199 0.7691,0.62613 1.1543,0.91211 0.3852,0.28598 0.77,0.55258 1.1543,0.79687 0.3842,0.2443 0.7672,0.4653 1.1484,0.66016 0.3812,0.19486 0.7607,0.36429 1.1367,0.50195 0.188,0.0688 0.3762,0.12856 0.5625,0.18164 0.1863,0.0531 0.3704,0.0984 0.5547,0.13477 0.1844,0.0363 0.3687,0.0634 0.5508,0.082 0.1821,0.0187 0.3634,0.0293 0.543,0.0293 0.7183,0 1.7149,-0.006 2.9199,0.004 1.205,0.01 2.6171,0.035 4.1621,0.0957 0.7725,0.0304 1.5782,0.0703 2.4082,0.12109 0.83,0.0508 1.6854,0.11319 2.5547,0.18945 0.8692,0.0763 1.7524,0.16656 2.6426,0.27344 0.8901,0.10688 1.787,0.23043 2.6797,0.37305 0.8926,0.14262 1.7812,0.30481 2.6582,0.48828 0.8769,0.18347 1.7411,0.38774 2.5839,0.61719 0.4215,0.11472 0.8386,0.2361 1.2481,0.36328 0.4094,0.12717 0.8118,0.26012 1.207,0.40039 0.3952,0.14026 0.7815,0.28741 1.1602,0.4414 0.3786,0.154 0.7495,0.31406 1.1093,0.48243 0.3599,0.16836 0.7102,0.34592 1.0489,0.52929 0.3387,0.18338 0.6651,0.37324 0.9804,0.57227 0.3154,0.19903 0.6186,0.40578 0.9083,0.62109 0.2896,0.21532 0.5664,0.43963 0.8281,0.67188 0.2616,0.23224 0.5089,0.47284 0.7402,0.72265 0.2314,0.24982 0.4458,0.50933 0.6445,0.77735 0.1988,0.26802 0.381,0.54516 0.545,0.83203 0.1639,0.28687 0.3107,0.58231 0.4375,0.88867 0.2535,0.61273 0.4885,1.23311 0.7089,1.85938 0.2205,0.62626 0.426,1.25935 0.6211,1.89453 0.1951,0.63517 0.3792,1.27264 0.5567,1.91211 0.1775,0.63946 0.3479,1.28078 0.5156,1.91992 0.3354,1.27827 0.6593,2.55156 1.002,3.80078 0.1713,0.62461 0.3484,1.2431 0.5332,1.85351 0.1848,0.61042 0.3779,1.21309 0.5839,1.80469 0.2061,0.5916 0.4252,1.17208 0.6602,1.74024 0.235,0.56816 0.4861,1.12396 0.7578,1.66406 0.2717,0.5401 0.5627,1.06485 0.8789,1.57227 0.1581,0.2537 0.3235,0.50142 0.4942,0.74609 0.1706,0.24467 0.347,0.48565 0.5312,0.7207 0.1842,0.23506 0.3755,0.46459 0.5742,0.68945 0.1988,0.22487 0.405,0.44412 0.6192,0.65821 0.2142,0.21409 0.4353,0.42421 0.666,0.62695 0.2307,0.20274 0.4706,0.39903 0.7187,0.58984 0.2481,0.19082 0.505,0.37638 0.7715,0.55469 0.2665,0.17832 0.5423,0.34844 0.8281,0.51367 0.2859,0.16524 0.5825,0.32499 0.8887,0.47657 0.3062,0.15157 0.6217,0.29626 0.9492,0.43359 0.3275,0.13734 0.69,0.27331 1.084,0.4082 0.3941,0.13489 0.8196,0.2679 1.2754,0.40039 0.4559,0.1325 0.9422,0.2644 1.4551,0.39454 0.5129,0.13014 1.0538,0.25888 1.6191,0.38671 1.1306,0.25567 2.3602,0.5072 3.6719,0.75391 1.3117,0.24671 2.7052,0.48845 4.1602,0.72656 1.4549,0.23812 2.9727,0.47129 4.5332,0.70117 1.5604,0.22989 3.1629,0.45571 4.791,0.67774 3.2562,0.44405 6.6103,0.87427 9.9101,1.28906 3.2999,0.41479 6.5449,0.81468 9.586,1.20313 3.041,0.38844 5.8777,0.76389 8.3574,1.1289 1.2399,0.18251 2.3908,0.36382 3.4336,0.54102 1.0428,0.1772 1.9772,0.35119 2.7851,0.52344 0.404,0.0861 0.7771,0.1709 1.1153,0.25586 0.3381,0.085 0.6425,0.17007 0.9101,0.2539 0.2677,0.0838 0.4991,0.16724 0.6914,0.25 0.1924,0.0828 0.3447,0.16437 0.4571,0.2461 0.2324,0.16902 0.4502,0.35051 0.6543,0.54296 0.204,0.19246 0.3947,0.39704 0.5722,0.61133 0.1776,0.2143 0.3413,0.43929 0.4942,0.67383 0.1528,0.23454 0.2937,0.47727 0.4238,0.73047 0.1301,0.2532 0.2503,0.51684 0.3594,0.78711 0.1091,0.27027 0.2088,0.54823 0.2988,0.83398 0.09,0.28575 -0.9063,0.69879 -0.8335,0.99843 0.073,0.29964 0.1378,0.60603 0.1953,0.91797 0.115,0.62387 0.2009,1.27007 0.2656,1.93359 0.065,0.66353 0.1094,1.34275 0.1387,2.0332 0.029,0.69046 0.044,1.39104 0.053,2.09571 0.01,0.70466 0.011,1.41494 0.014,2.12109 0,0.70616 0.01,1.40859 0.022,2.10352 0.013,0.69492 0.032,1.38176 0.068,2.05273 0.037,0.67098 0.09,1.32664 0.166,1.96094 0.038,0.31715 0.08,0.62799 0.1308,0.93359 0.05,0.3056 0.109,0.60599 0.1739,0.89844 0.065,0.29246 0.1357,0.57775 0.2168,0.85547 0.081,0.27772 1.2479,0.42767 1.3471,0.68907 0.099,0.2614 0.207,0.51433 0.3262,0.75782 0.1192,0.24348 0.2496,0.47719 0.3906,0.70117 0.1411,0.22398 0.2942,0.43969 0.459,0.64258 0.1648,0.20288 0.3409,0.39401 0.5313,0.57421 0.1903,0.18021 0.3935,0.34798 0.6113,0.50391 0.2178,0.15593 0.4502,0.29962 0.6973,0.42969 0.7567,0.39832 1.5123,0.77615 2.2675,1.13476 0.7553,0.35861 1.5098,0.69896 2.2637,1.01954 0.7539,0.32057 1.5073,0.62203 2.2598,0.90624 0.7525,0.28422 1.5046,0.55126 2.2558,0.80079 0.7513,0.24952 1.502,0.48075 2.252,0.69726 0.75,0.21651 1.4992,0.41835 2.248,0.60352 0.7489,0.18517 1.4984,0.35426 2.2461,0.50976 0.7478,0.1555 1.4936,0.29633 2.2403,0.42383 0.7467,0.12751 1.4945,0.24257 2.2402,0.34375 0.7457,0.10119 1.4896,0.18909 2.2344,0.26563 0.7448,0.0765 1.4904,0.14174 2.2344,0.19531 0.7439,0.0536 1.4873,0.0947 2.2304,0.12695 0.7431,0.0323 1.4842,0.0557 2.2266,0.0684 0.7423,0.0126 1.4849,0.0151 2.2265,0.01 0.7417,-0.005 1.4836,-0.0194 2.2247,-0.041 0.741,-0.0216 1.4821,-0.0517 2.2226,-0.0879 1.4809,-0.0724 2.9605,-0.1722 4.4395,-0.29297 1.479,-0.12077 2.956,-0.26221 4.4336,-0.41797 1.4775,-0.15575 2.955,-0.32459 4.4316,-0.50195 1.4766,-0.17736 2.9536,-0.36326 4.4297,-0.54883 1.4761,-0.18556 2.9516,-0.37039 4.4277,-0.55078 1.4762,-0.18039 2.9531,-0.35576 4.4297,-0.51758 1.4766,-0.16182 2.9521,-0.31154 4.4297,-0.4414 1.4776,-0.12986 2.9566,-0.23971 4.4355,-0.32422 2.958,-0.16903 5.7041,-0.32773 8.2481,-0.4961 1.272,-0.0842 2.4943,-0.17002 3.666,-0.26172 1.1717,-0.0917 2.2936,-0.18864 3.3672,-0.29296 1.0736,-0.10433 2.0986,-0.21583 3.0762,-0.33789 0.9776,-0.12207 1.9072,-0.25547 2.791,-0.40039 0.8837,-0.14493 1.7216,-0.30171 2.5137,-0.47461 0.792,-0.17291 2.8543,-0.12332 3.5568,-0.32932 0.3513,-0.10301 0.6903,-0.21003 1.0196,-0.32227 0.3292,-0.11223 0.6475,-0.22945 0.9551,-0.35156 0.3075,-0.12211 0.6045,-0.24824 0.8906,-0.38086 0.2861,-0.13262 0.5612,-0.27029 0.8261,-0.41406 0.265,-0.14378 0.5197,-0.29366 0.7637,-0.44922 0.244,-0.15557 0.4778,-0.31833 0.7012,-0.48633 0.2234,-0.168 0.4357,-0.34237 0.6387,-0.52344 0.203,-0.18107 0.3971,-0.36772 0.58,-0.5625 0.1829,-0.19478 0.3546,-0.39634 0.5176,-0.60547 0.1631,-0.20913 0.3175,-0.42627 0.461,-0.65039 0.1434,-0.22412 0.2762,-0.45556 0.4003,-0.69531 0.1242,-0.23975 0.2386,-0.48812 0.3438,-0.74414 0.1051,-0.25602 0.2027,-0.52004 0.2891,-0.79297 0.086,-0.27293 0.1625,-0.55523 0.2304,-0.8457 0.068,-0.29048 0.1262,-0.58978 0.1758,-0.89844 0.05,-0.30866 0.091,-0.62563 0.1231,-0.95313 0.063,-0.65498 0.1073,-1.27754 0.1386,-1.86914 0.031,-0.59159 0.049,-1.15205 0.059,-1.68554 0.018,-1.06699 0,-2.02436 -0.01,-2.89063 -0.01,-0.43313 -0.01,-0.8435 -0.01,-1.23437 0,-0.39088 0.011,-0.76133 0.031,-1.11524 0.02,-0.3539 0.051,-0.69146 0.098,-1.01367 0.047,-0.32221 0.1108,-0.62998 0.1953,-0.92578 0.084,-0.2958 0.1906,-0.57884 0.3223,-0.85352 0.1317,-0.27467 0.2897,-0.54 0.4785,-0.79882 0.1888,-0.25883 0.4082,-0.51151 0.6641,-0.75977 0.2558,-0.24826 0.548,-0.4914 0.8808,-0.73437 0.3328,-0.24298 -0.6073,-0.72458 -0.1877,-0.96756 0.4196,-0.24298 0.884,-0.48807 1.4004,-0.73633 0.5163,-0.24826 1.084,-0.49899 1.707,-0.75781 0.623,-0.25882 1.3015,-0.52416 2.041,-0.79883 0.7395,-0.27467 1.5163,-0.53346 2.3223,-0.77734 0.8059,-0.24389 1.6407,-0.47454 2.498,-0.68946 0.8574,-0.21491 1.7371,-0.41575 2.6309,-0.60351 0.8937,-0.18776 1.8017,-0.36101 2.7168,-0.52344 0.9151,-0.16242 1.8363,-0.31227 2.7578,-0.45117 0.9215,-0.1389 1.843,-0.26757 2.7559,-0.38477 0.9128,-0.11719 1.8179,-0.223 2.707,-0.32031 0.8891,-0.0973 1.7628,-0.18639 2.6133,-0.26562 1.7008,-0.15847 3.3097,-0.28185 4.7656,-0.37891 1.4559,-0.0971 2.7588,-0.16662 3.8496,-0.2168 0.9294,-0.0427 0.9126,-0.0342 1.4961,-0.0527 l -1.0274,-75.45508 c 0,0 2.0298,-7.4372 -10.8164,-4.05664 -12.846,3.38056 -32.4547,-3.3815 -37.1875,-6.08594 -3.9933,-2.28187 -4.1352,-10.81991 -4.8945,-10.58984 z"
       transform="scale(0.26458333)"
       sodipodi:nodetypes="sssssssscssssssssssssssssssssssssssssssssssssssssssssssssssssssssssssssssssssssssssssssssssssssssssssssssssssssssssssssssssssssssssssssssssssssssssssssssssssssssssssssssssssssssssssssssssssssssccsss" />
    <path
       id="path9295"
       style="fill:#f0f0f0;fill-opacity:1;stroke:none;stroke-width:0.264583px;stroke-linecap:butt;stroke-linejoin:miter;stroke-opacity:1"
       d="m 366.45463,145.62292 c -0.15438,0.005 -0.14994,0.003 -0.39584,0.014 -0.28861,0.0133 -0.63333,0.0317 -1.01854,0.0574 -0.38521,0.0257 -0.8109,0.0583 -1.2609,0.10025 -0.22503,0.021 -0.45619,0.0445 -0.69143,0.0703 -0.23525,0.0258 -0.47472,0.0537 -0.71623,0.0848 -0.24154,0.031 -0.48535,0.065 -0.72917,0.1018 -0.24381,0.0367 -0.48754,0.0764 -0.72966,0.11937 -0.24212,0.043 -0.48237,0.0888 -0.71882,0.1385 -0.23649,0.0497 -0.46924,0.10281 -0.6961,0.15968 -0.22682,0.0569 -0.4477,0.11789 -0.66093,0.18241 -0.21325,0.0645 -0.41878,0.133 -0.61444,0.20568 -0.19566,0.0727 -0.37518,0.14287 -0.54001,0.21135 -0.16484,0.0685 -0.31504,0.13482 -0.45165,0.20051 -0.13663,0.0657 -0.2595,0.13053 -0.37052,0.19482 -0.11102,0.0643 -0.21013,0.12846 -0.29818,0.19275 -0.0881,0.0643 -0.16537,0.12862 -0.23305,0.1943 -0.0677,0.0657 -0.12576,0.13254 -0.17571,0.20103 -0.05,0.0685 -0.0918,0.13868 -0.1266,0.21135 -0.0349,0.0727 -0.0629,0.14756 -0.0853,0.22583 -0.0224,0.0783 -0.0392,0.15969 -0.0517,0.24494 -0.0125,0.0853 -0.0206,0.17457 -0.0258,0.2682 -0.005,0.0936 -0.008,0.19166 -0.008,0.29508 -6e-4,0.10342 6.7e-4,0.21199 0.002,0.32659 0.003,0.2292 0.007,0.48251 0.002,0.76481 -0.002,0.14116 -0.007,0.28945 -0.0155,0.44597 -0.008,0.15653 -0.0199,0.32125 -0.0367,0.49454 -0.008,0.0867 -0.0194,0.17052 -0.0326,0.25219 -0.0131,0.0817 -0.0285,0.16085 -0.0465,0.23771 -0.018,0.0769 -0.0381,0.15154 -0.061,0.22376 -0.0229,0.0722 -0.0487,0.14206 -0.0765,0.2098 -0.0278,0.0677 -0.0581,0.13346 -0.091,0.19689 -0.0328,0.0634 -0.068,0.12467 -0.10592,0.18397 -0.038,0.0593 -0.0788,0.11675 -0.12197,0.17208 -0.0431,0.0553 -0.0885,0.10866 -0.13695,0.1602 -0.0484,0.0515 -0.0997,0.10092 -0.15345,0.14883 -0.0537,0.0479 -0.10989,0.094 -0.16899,0.13849 -0.0591,0.0445 -0.12097,0.0875 -0.18553,0.12867 -0.0646,0.0412 -0.13195,0.0808 -0.20206,0.11886 -0.0701,0.038 -0.14288,0.0745 -0.21857,0.10955 -0.0757,0.0351 -0.15428,0.0685 -0.23564,0.10077 -0.0814,0.0323 -0.16561,0.0633 -0.25271,0.093 -0.0871,0.0297 -0.17682,0.058 -0.26977,0.0853 -0.18586,0.0545 -0.38367,0.10463 -0.59322,0.15037 -0.20957,0.0457 -0.43127,0.0872 -0.66508,0.12558 -0.23384,0.0383 -0.4798,0.0736 -0.73845,0.10594 -0.25866,0.0323 -0.52986,0.0618 -0.81391,0.0894 -0.28406,0.0276 -0.5809,0.0533 -0.89091,0.0775 -0.31001,0.0243 -0.63341,0.047 -0.96996,0.0692 -0.6731,0.0446 -1.39967,0.0865 -2.18231,0.13126 -0.39129,0.0224 -0.78261,0.0514 -1.17356,0.0858 -0.39095,0.0344 -0.78134,0.074 -1.17203,0.11678 -0.39068,0.0428 -0.78144,0.0892 -1.17202,0.13695 -0.39055,0.0477 -0.78094,0.0966 -1.1715,0.14572 -0.39055,0.0491 -0.78134,0.0983 -1.17202,0.14522 -0.39068,0.0469 -0.78161,0.0916 -1.17253,0.1328 -0.39095,0.0412 -0.78174,0.0786 -1.17305,0.11059 -0.39132,0.032 -0.7828,0.0584 -1.17462,0.0775 -0.19593,0.01 -0.39201,0.0175 -0.58807,0.0232 -0.19608,0.006 -0.39237,0.009 -0.58861,0.0109 -0.19622,10e-4 -0.3927,7.6e-4 -0.5891,-0.003 -0.19643,-0.003 -0.39251,-0.01 -0.58912,-0.0181 -0.19661,-0.009 -0.3933,-0.0194 -0.59013,-0.0336 -0.19685,-0.0142 -0.39412,-0.0314 -0.59118,-0.0517 -0.19706,-0.0203 -0.39389,-0.0435 -0.59119,-0.0703 -0.1973,-0.0268 -0.39515,-0.0572 -0.59272,-0.091 -0.19756,-0.0337 -0.39489,-0.071 -0.59274,-0.11214 -0.19783,-0.0412 -0.39614,-0.0859 -0.59428,-0.13488 -0.19812,-0.049 -0.39635,-0.10239 -0.59479,-0.15968 -0.19843,-0.0573 -0.39706,-0.11846 -0.59584,-0.18448 -0.19875,-0.066 -0.39775,-0.13668 -0.59684,-0.21188 -0.1991,-0.0752 -0.39844,-0.15496 -0.59791,-0.23977 -0.19947,-0.0848 -0.3991,-0.17487 -0.59894,-0.26976 -0.19981,-0.0949 -0.39973,-0.19485 -0.59994,-0.30024 -0.0654,-0.0344 -0.12687,-0.0724 -0.18449,-0.11368 -0.0576,-0.0413 -0.11139,-0.0856 -0.16174,-0.13333 -0.0504,-0.0477 -0.097,-0.0983 -0.14058,-0.15193 -0.0436,-0.0537 -0.0841,-0.11075 -0.12144,-0.17001 -0.0373,-0.0593 -0.0718,-0.1211 -0.10335,-0.18552 -0.0315,-0.0644 -0.06,-0.13134 -0.0863,-0.20051 -0.0263,-0.0692 -0.0503,-0.14046 -0.0718,-0.21394 -0.0215,-0.0735 -0.0402,-0.14896 -0.0574,-0.22634 -0.0172,-0.0774 -0.0327,-0.15685 -0.046,-0.23771 -0.0133,-0.0809 -0.0246,-0.1631 -0.0346,-0.24701 -0.02,-0.16783 -0.0342,-0.34131 -0.0439,-0.51884 -0.01,-0.17752 -0.0148,-0.35925 -0.0181,-0.54311 -0.003,-0.18387 -0.005,-0.36972 -0.006,-0.55656 -8.5e-4,-0.18684 -10e-4,-0.37476 -0.004,-0.56121 -0.002,-0.18644 -0.006,-0.3718 -0.014,-0.55449 -0.008,-0.18268 -0.0196,-0.36239 -0.0367,-0.53795 -0.0171,-0.17555 -0.0399,-0.34653 -0.0703,-0.51159 -0.0152,-0.0825 -0.0324,-0.1636 -0.0517,-0.24288 -0.0193,-0.0793 -0.0402,-0.15694 -0.0641,-0.23255 -0.0238,-0.0756 -0.0502,-0.14914 -0.0791,-0.22065 -0.0289,-0.0715 -0.0607,-0.14127 -0.0951,-0.20826 -0.0344,-0.067 -0.0717,-0.13121 -0.11213,-0.19327 -0.0405,-0.0621 -0.0838,-0.12158 -0.13076,-0.17828 -0.047,-0.0567 -0.0974,-0.11083 -0.15139,-0.16175 -0.054,-0.0509 -0.11163,-0.0989 -0.17312,-0.14366 -0.0297,-0.0216 -0.07,-0.0432 -0.12094,-0.0651 -0.0509,-0.0219 -0.11211,-0.044 -0.18294,-0.0661 -0.0708,-0.0222 -0.15134,-0.0447 -0.24079,-0.0672 -0.0895,-0.0225 -0.1882,-0.0449 -0.29509,-0.0677 -0.21376,-0.0456 -0.46099,-0.0916 -0.73689,-0.1385 -0.27591,-0.0469 -0.58042,-0.0949 -0.90848,-0.14314 -0.65608,-0.0966 -1.40663,-0.19592 -2.21123,-0.29869 -0.80462,-0.10278 -1.66319,-0.20858 -2.53629,-0.31833 -0.87307,-0.10975 -1.76051,-0.22357 -2.62205,-0.34106 -0.43077,-0.0588 -0.85476,-0.1185 -1.26762,-0.17932 -0.41288,-0.0608 -0.81446,-0.12252 -1.19941,-0.18552 -0.38496,-0.063 -0.75366,-0.12696 -1.10072,-0.19223 -0.34705,-0.0653 -0.67238,-0.13183 -0.97152,-0.19948 -0.14957,-0.0338 -0.29268,-0.0679 -0.42839,-0.10231 -0.1357,-0.0344 -0.26437,-0.0693 -0.38499,-0.10439 -0.1206,-0.0351 -0.23318,-0.0703 -0.33745,-0.10594 -0.10425,-0.0357 -0.20016,-0.0717 -0.28681,-0.108 -0.0867,-0.0363 -0.17013,-0.0746 -0.25114,-0.11472 -0.081,-0.0401 -0.15949,-0.0824 -0.23514,-0.12609 -0.0756,-0.0437 -0.14859,-0.0887 -0.2191,-0.13591 -0.0705,-0.0472 -0.13848,-0.0963 -0.20412,-0.14677 -0.0657,-0.0505 -0.12912,-0.10242 -0.19016,-0.15606 -0.061,-0.0536 -0.11954,-0.10923 -0.17621,-0.16588 -0.0567,-0.0566 -0.11123,-0.11465 -0.16383,-0.17415 -0.0526,-0.0595 -0.10319,-0.12022 -0.15193,-0.18242 -0.0487,-0.0622 -0.0954,-0.12595 -0.14054,-0.19068 -0.0452,-0.0647 -0.0889,-0.13028 -0.13076,-0.1974 -0.0837,-0.13426 -0.16066,-0.2731 -0.23254,-0.416 -0.0719,-0.1429 -0.13833,-0.28996 -0.2005,-0.44028 -0.0622,-0.15033 -0.12015,-0.30391 -0.17468,-0.46044 -0.0545,-0.15653 -0.1056,-0.31599 -0.15449,-0.47749 -0.0489,-0.16151 -0.0958,-0.32515 -0.14108,-0.49041 -0.0907,-0.33052 -0.17637,-0.66741 -0.26511,-1.00562 -0.0444,-0.16911 -0.0895,-0.33879 -0.13642,-0.50798 -0.047,-0.1692 -0.0957,-0.33786 -0.14729,-0.50591 -0.0516,-0.16806 -0.106,-0.33557 -0.16434,-0.50127 -0.0583,-0.1657 -0.12049,-0.32984 -0.18756,-0.49196 -0.0335,-0.0811 -0.0724,-0.15922 -0.11575,-0.23512 -0.0434,-0.0759 -0.0916,-0.14923 -0.1442,-0.22015 -0.0526,-0.0709 -0.1093,-0.13957 -0.17053,-0.20567 -0.0612,-0.0661 -0.12663,-0.12975 -0.19584,-0.1912 -0.0692,-0.0615 -0.14248,-0.1208 -0.2191,-0.17777 -0.0767,-0.057 -0.15687,-0.11167 -0.24032,-0.16433 -0.0834,-0.0527 -0.16979,-0.10289 -0.2594,-0.15141 -0.0896,-0.0485 -0.1823,-0.0955 -0.27752,-0.14004 -0.0952,-0.0445 -0.19333,-0.0869 -0.2935,-0.12765 -0.1002,-0.0407 -0.20241,-0.0797 -0.30697,-0.11678 -0.10457,-0.0371 -0.21104,-0.0723 -0.31936,-0.10594 -0.10834,-0.0336 -0.2187,-0.0658 -0.33022,-0.0961 -0.22299,-0.0607 -0.45165,-0.11475 -0.68366,-0.1633 -0.23204,-0.0485 -0.46715,-0.0914 -0.70331,-0.12919 -0.2362,-0.0377 -0.4735,-0.0704 -0.70901,-0.0987 -0.23553,-0.0283 -0.46921,-0.0522 -0.69919,-0.0724 -0.23,-0.0202 -0.45632,-0.0367 -0.67593,-0.0501 -0.2196,-0.0134 -0.43278,-0.024 -0.63717,-0.032 -0.40878,-0.0161 -0.7824,-0.0227 -1.10122,-0.0253 -0.31882,-0.003 -0.58251,-0.001 -0.77256,-0.001 -0.0475,0 -0.0955,-0.003 -0.14367,-0.008 -0.0482,-0.005 -0.0969,-0.0121 -0.14573,-0.0217 -0.0488,-0.01 -0.0975,-0.0216 -0.14676,-0.0357 -0.0493,-0.014 -0.0991,-0.0298 -0.14883,-0.0481 -0.0995,-0.0364 -0.19989,-0.0812 -0.30075,-0.13281 -0.10086,-0.0516 -0.2022,-0.11003 -0.30385,-0.17466 -0.10168,-0.0646 -0.20349,-0.13518 -0.30541,-0.21084 -0.10192,-0.0757 -0.20383,-0.15669 -0.30541,-0.24133 -0.1016,-0.0846 -0.20317,-0.17302 -0.30387,-0.26458 -0.10067,-0.0916 -0.20048,-0.18624 -0.29972,-0.28267 -0.19844,-0.19287 -0.3937,-0.39323 -0.5829,-0.59325 -0.18921,-0.20003 -0.37238,-0.39938 -0.54777,-0.59015 -0.17539,-0.19076 -0.34266,-0.37286 -0.49972,-0.53795 -0.15706,-0.16508 -0.30406,-0.31316 -0.4382,-0.43615 -0.0671,-0.0615 -0.13515,-0.12069 -0.20466,-0.17725 -0.0695,-0.0565 -0.14031,-0.11073 -0.21291,-0.16226 -0.0726,-0.0515 -0.14692,-0.10034 -0.22323,-0.14676 -0.0763,-0.0464 -0.15441,-0.0905 -0.23513,-0.13178 -0.0807,-0.0412 -0.16383,-0.0798 -0.24958,-0.11575 -0.0857,-0.0359 -0.17418,-0.0692 -0.26562,-0.0997 -0.0915,-0.0306 -0.18589,-0.0586 -0.28371,-0.0837 -0.0978,-0.0251 -0.19905,-0.0471 -0.30385,-0.0667 -0.10483,-0.0196 -0.2136,-0.0367 -0.3261,-0.0506 -0.11247,-0.0139 -0.22852,-0.0249 -0.34933,-0.0331 -0.12081,-0.008 -0.24643,-0.0136 -0.37621,-0.016 -0.12975,-0.002 -0.26418,-0.002 -0.40357,0.002 -0.13941,0.003 -0.28337,0.0102 -0.43307,0.0196 -0.14967,0.009 -0.30496,0.0217 -0.46558,0.0372 -0.16063,0.0155 -0.32698,0.0346 -0.49922,0.0563 -0.17222,0.0217 -0.35036,0.0465 -0.53483,0.0744 0,0 5.18806,3.22001 5.72471,10.5544 11.44881,1.43111 10.73317,6.61854 12.87984,9.12296 2.14664,2.50443 3.57759,2.14697 11.98531,3.57807 8.40771,1.4311 6.9764,2.32526 6.79751,3.75636 -0.17888,1.4311 -0.89421,4.29318 3.75687,5.5454 4.65106,1.25221 24.86533,-0.3576 27.72752,-1.43092 2.86221,-1.07333 2.50467,-1.61013 1.61022,-5.009 -0.89442,-3.39885 8.58658,-4.11447 8.58658,-4.11447 z" />
  </g>
</svg>
