<?xml version="1.0" encoding="UTF-8" standalone="no"?>
<!-- Created with Inkscape (http://www.inkscape.org/) -->

<svg
   width="400"
   height="300"
   viewBox="0 0 105.83333 79.375002"
   version="1.1"
   id="svg5"
   inkscape:version="1.1.1 (3bf5ae0d25, 2021-09-20)"
   sodipodi:docname="iceberg_pinguim_hand.svg"
   xmlns:inkscape="http://www.inkscape.org/namespaces/inkscape"
   xmlns:sodipodi="http://sodipodi.sourceforge.net/DTD/sodipodi-0.dtd"
   xmlns:xlink="http://www.w3.org/1999/xlink"
   xmlns="http://www.w3.org/2000/svg"
   xmlns:svg="http://www.w3.org/2000/svg">
  <sodipodi:namedview
     id="namedview7"
     pagecolor="#a9a9a9"
     bordercolor="#111111"
     borderopacity="1"
     inkscape:pageshadow="0"
     inkscape:pageopacity="0"
     inkscape:pagecheckerboard="1"
     inkscape:document-units="mm"
     showgrid="false"
     units="px"
     inkscape:zoom="0.55866192"
     inkscape:cx="156.62424"
     inkscape:cy="-13.424935"
     inkscape:window-width="1298"
     inkscape:window-height="745"
     inkscape:window-x="54"
     inkscape:window-y="-8"
     inkscape:window-maximized="1"
     inkscape:current-layer="layer3"
     inkscape:snap-global="false" />
  <defs
     id="defs2">
    <linearGradient
       inkscape:collect="always"
       id="linearGradient9212">
      <stop
         style="stop-color:#e4b33c;stop-opacity:1"
         offset="0"
         id="stop9208" />
      <stop
         style="stop-color:#dadada;stop-opacity:1"
         offset="1"
         id="stop9210" />
    </linearGradient>
    <linearGradient
       inkscape:collect="always"
       xlink:href="#linearGradient9212"
       id="linearGradient9214"
       x1="15.151127"
       y1="44.8531"
       x2="15.163133"
       y2="45.753521"
       gradientUnits="userSpaceOnUse" />
  </defs>
  <g
     inkscape:label="Camada 1"
     inkscape:groupmode="layer"
     id="layer1"
     style="display:none"
     sodipodi:insensitive="true">
    <path
       id="path857"
       style="fill:#c7c7c7;fill-opacity:1;stroke:none;stroke-width:0.264583px;stroke-linecap:butt;stroke-linejoin:miter;stroke-opacity:1"
       d="m 103.82519,52.276592 c -0.001,3.15e-4 -0.002,7.23e-4 -0.003,10e-4 -0.21934,0.06657 -0.43818,0.128603 -0.65578,0.186036 -0.2176,0.05743 -0.43394,0.110443 -0.64957,0.159163 -0.21564,0.04872 -0.43047,0.09341 -0.64389,0.133842 -0.21342,0.04043 -0.42568,0.07646 -0.63665,0.109038 -0.21098,0.03258 -0.42061,0.06168 -0.6289,0.08682 -0.2083,0.02514 -0.41527,0.04647 -0.62064,0.06459 -0.205365,0.01813 -0.409131,0.0329 -0.611331,0.04444 -0.2022,0.01154 -0.402717,0.01994 -0.601514,0.02532 -0.397592,0.01077 -0.787927,0.0098 -1.170472,-0.0016 -0.382545,-0.01133 -0.757343,-0.03302 -1.122929,-0.06304 -0.365585,-0.03002 -0.721955,-0.06837 -1.068667,-0.113687 -0.346713,-0.04532 -0.683829,-0.09781 -1.009759,-0.15503 -0.325927,-0.05722 -0.640897,-0.119284 -0.944129,-0.185002 -0.303231,-0.06572 -0.594706,-0.134855 -0.873331,-0.205671 -0.278622,-0.07082 -0.544229,-0.143494 -0.796332,-0.216008 -0.252103,-0.07252 -0.490498,-0.144674 -0.714169,-0.21549 -0.223671,-0.07082 -0.432477,-0.139957 -0.625803,-0.205674 -0.386651,-0.131432 -0.710996,-0.249386 -0.964798,-0.340029 -0.06345,-0.02266 -0.133755,-0.04255 -0.210322,-0.05995 -0.07657,-0.0174 -0.159316,-0.03258 -0.248047,-0.04496 -0.177464,-0.02475 -0.378553,-0.03938 -0.598932,-0.04547 -0.220377,-0.0061 -0.460074,-0.0034 -0.715717,0.0072 -0.255645,0.01066 -0.527026,0.02928 -0.810286,0.05478 -0.283263,0.02549 -0.578369,0.0577 -0.8816,0.09612 -0.303233,0.03842 -0.614624,0.08286 -0.930177,0.132292 -0.315552,0.04943 -0.63527,0.103735 -0.955497,0.162266 -0.320228,0.05853 -0.640827,0.121352 -0.95808,0.187069 -0.317254,0.06571 -0.631296,0.134678 -0.937927,0.205671 -0.306631,0.07099 -0.606161,0.144235 -0.894519,0.218591 -0.288362,0.07436 -0.565415,0.149503 -0.827858,0.225308 -0.262443,0.07581 -0.510098,0.15203 -0.738973,0.227378 -0.228875,0.07535 -0.439174,0.150267 -0.626835,0.223242 -0.187661,0.07297 -0.352645,0.144217 -0.491442,0.212908 -0.0694,0.03435 -0.132353,0.06785 -0.188103,0.100769 -0.05575,0.03291 -0.104066,0.06487 -0.145212,0.09612 -0.04114,0.03125 -0.07519,0.06161 -0.100769,0.09095 -0.02558,0.02934 -0.04313,0.05807 -0.05219,0.08526 -0.0091,0.02719 -0.02431,0.0526 -0.04548,0.077 -0.02117,0.0244 -0.04806,0.04756 -0.08061,0.06925 -0.03256,0.02168 -0.07046,0.04192 -0.113689,0.06098 -0.04323,0.01905 -0.09203,0.03673 -0.145211,0.05323 -0.106366,0.033 -0.231741,0.06097 -0.373621,0.08423 -0.141878,0.02326 -0.300149,0.04216 -0.471805,0.05633 -0.171657,0.01416 -0.356725,0.02376 -0.552421,0.02946 -0.195699,0.0057 -0.401979,0.0073 -0.615984,0.0052 -0.214003,-0.0021 -0.435401,-0.0077 -0.661975,-0.01705 -0.226573,-0.0093 -0.458023,-0.02238 -0.69143,-0.03824 -0.466815,-0.03172 -0.941732,-0.0756 -1.401466,-0.129706 -0.229865,-0.02705 -0.455917,-0.05668 -0.67541,-0.08837 -0.219493,-0.03169 -0.432239,-0.06559 -0.635622,-0.101286 -0.20338,-0.03569 -0.397756,-0.07308 -0.579292,-0.112138 -0.181536,-0.03905 -0.350409,-0.07966 -0.504362,-0.121438 -0.153953,-0.04178 -0.292777,-0.08481 -0.413411,-0.128675 -0.120634,-0.04387 -0.223311,-0.08852 -0.30489,-0.133842 -0.04079,-0.02266 -0.08867,-0.04304 -0.143145,-0.06046 -0.05447,-0.01743 -0.115231,-0.03196 -0.182417,-0.04444 -0.134371,-0.02496 -0.293394,-0.0406 -0.472839,-0.04754 -0.179446,-0.0069 -0.379545,-0.0051 -0.596348,0.0036 -0.216799,0.0087 -0.450159,0.02442 -0.696597,0.04651 -0.246438,0.0221 -0.505756,0.05061 -0.774113,0.08372 -0.268356,0.03311 -0.545819,0.07087 -0.828373,0.112654 -0.565108,0.08356 -1.150922,0.182047 -1.72651,0.286287 -0.575587,0.104241 -1.140698,0.214172 -1.665014,0.320395 -0.524317,0.106222 -1.00774,0.208661 -1.419035,0.298172 -0.822592,0.179022 -1.35754,0.305924 -1.35754,0.305924 0,0 -0.03856,0.03645 -0.117306,0.09509 -0.07875,0.05864 -0.197741,0.139933 -0.358634,0.229442 -0.08045,0.04476 -0.171231,0.09123 -0.272852,0.138493 -0.101619,0.04727 -0.213712,0.09528 -0.336931,0.141595 -0.123216,0.04631 -0.257315,0.09092 -0.402558,0.132807 -0.145243,0.04189 -0.302049,0.08073 -0.469739,0.114724 -0.16769,0.03399 -0.346353,0.06316 -0.536919,0.08578 -0.190563,0.02263 -0.392819,0.03872 -0.606681,0.04651 -0.21386,0.0078 -0.439375,0.0074 -0.676961,-0.0031 -0.237585,-0.01052 -0.487058,-0.03127 -0.748792,-0.06356 -0.261733,-0.03229 -0.535866,-0.0763 -0.822171,-0.133842 -0.286306,-0.05754 -0.584764,-0.128204 -0.89607,-0.214456 -0.311303,-0.08625 -0.635307,-0.188002 -0.972034,-0.306443 -0.168362,-0.05922 -0.339897,-0.122769 -0.514697,-0.190685 -0.174799,-0.06792 -0.353046,-0.139994 -0.534334,-0.21704 -0.725148,-0.30819 -1.343771,-0.562298 -1.871204,-0.770496 -0.527431,-0.208198 -0.963639,-0.370843 -1.323949,-0.496612 -0.360309,-0.125767 -0.644903,-0.214532 -0.868683,-0.275434 -0.111887,-0.03045 -0.208478,-0.05379 -0.29197,-0.07131 -0.08349,-0.01753 -0.153471,-0.02938 -0.212389,-0.03617 -0.05892,-0.0068 -0.106526,-0.0085 -0.144695,-0.0067 -0.03817,0.0017 -0.06712,0.0069 -0.08837,0.01499 -0.02125,0.0081 -0.03475,0.01879 -0.04289,0.03101 -0.0081,0.01222 -0.01095,0.02614 -0.0098,0.04031 0.0023,0.02833 0.01923,0.05819 0.03565,0.08113 0.01643,0.02294 0.03256,0.03876 0.03256,0.03876 0,0 -0.129278,-0.03612 -0.360701,-0.0956 -0.231426,-0.05949 -0.565071,-0.142219 -0.974101,-0.235127 -0.409029,-0.09291 -0.893455,-0.195832 -1.42627,-0.296109 -0.266407,-0.05014 -0.545243,-0.09967 -0.832507,-0.146759 -0.287263,-0.04709 -0.582795,-0.09202 -0.884184,-0.13281 -0.30139,-0.04079 -0.608465,-0.07729 -0.917258,-0.108519 -0.308789,-0.03123 -0.619678,-0.05704 -0.929139,-0.07545 -0.309465,-0.01841 -0.617467,-0.0297 -0.920875,-0.03204 -0.303408,-0.0023 -0.601826,0.0042 -0.892453,0.02119 -0.145314,0.0085 -0.289091,0.01965 -0.429948,0.03359 -0.140856,0.01394 -0.278886,0.03085 -0.414446,0.05064 -0.135556,0.01979 -0.268488,0.04268 -0.397906,0.06873 -0.129421,0.02605 -0.255315,0.05513 -0.377757,0.08785 -0.122438,0.03272 -0.241429,0.06873 -0.356049,0.108522 -0.114621,0.03979 -0.224772,0.08347 -0.33073,0.130741 -0.105957,0.04727 -0.207401,0.09832 -0.303858,0.15348 -0.09645,0.05515 -0.18829,0.114315 -0.274402,0.177765 -0.344445,0.253804 -0.681923,0.489723 -1.01079,0.706416 -0.328866,0.216697 -0.648758,0.414325 -0.95808,0.592215 -0.154662,0.08894 -0.306755,0.172738 -0.455787,0.251663 -0.149032,0.07892 -0.29531,0.153001 -0.438216,0.221692 -0.142904,0.06869 -0.282811,0.131924 -0.419095,0.190169 -0.136284,0.05825 -0.268743,0.111575 -0.39791,0.159163 -0.129166,0.04759 -0.25465,0.08937 -0.376203,0.12609 -0.121554,0.03672 -0.239506,0.0679 -0.352951,0.09354 -0.113446,0.02564 -0.222787,0.04612 -0.327628,0.06046 -0.104842,0.01434 -0.205015,0.02301 -0.300758,0.02584 -0.09574,0.0028 -0.186703,-4.16e-4 -0.272851,-0.0093 -0.08615,-0.0089 -0.167341,-0.02362 -0.243396,-0.04444 -0.07606,-0.02082 -0.14692,-0.04765 -0.212391,-0.08062 -0.06547,-0.03296 -0.125447,-0.07199 -0.179832,-0.117306 -0.02719,-0.02266 -0.05799,-0.04325 -0.09147,-0.0615 -0.03348,-0.01825 -0.06973,-0.0345 -0.109038,-0.04858 -0.07861,-0.02815 -0.168542,-0.04809 -0.267681,-0.06098 -0.09914,-0.01289 -0.2075,-0.01854 -0.323496,-0.01808 -0.115996,4.58e-4 -0.239802,0.0072 -0.368969,0.01912 -0.129167,0.0119 -0.263904,0.02871 -0.402561,0.05013 -0.138655,0.02142 -0.280831,0.04745 -0.425297,0.07648 -0.288927,0.05807 -0.585856,0.129141 -0.875916,0.206188 -0.290057,0.07705 -0.573357,0.160083 -0.83509,0.240813 -0.261734,0.08073 -0.501951,0.159295 -0.7059,0.228409 -0.407897,0.138232 -0.67076,0.238228 -0.67076,0.238228 0,0 -0.286012,-0.146068 -0.754476,-0.37362 -0.234232,-0.113777 -0.514256,-0.247635 -0.826823,-0.39429 -0.312566,-0.146659 -0.657629,-0.306205 -1.022676,-0.469739 -0.365048,-0.163536 -0.749859,-0.331168 -1.141533,-0.495578 -0.391673,-0.164409 -0.790427,-0.325628 -1.182873,-0.474906 -0.392446,-0.14928 -0.778819,-0.286999 -1.146183,-0.405143 -0.183682,-0.05907 -0.362288,-0.112943 -0.534852,-0.161232 -0.172563,-0.04829 -0.338913,-0.09059 -0.497127,-0.12609 -0.521596,-0.117046 -1.052174,-0.225644 -1.552877,-0.325561 -0.500702,-0.09991 -0.971342,-0.191561 -1.373559,-0.275434 -0.201109,-0.04194 -0.385315,-0.08176 -0.547253,-0.119891 -0.161939,-0.03813 -0.301892,-0.07457 -0.414962,-0.109037 -0.11307,-0.03446 -0.19923,-0.06674 -0.253732,-0.09767 -0.02725,-0.01546 -0.04657,-0.03087 -0.05736,-0.04547 -0.01079,-0.01461 -0.01308,-0.02861 -0.0062,-0.04237 0,0 -0.117633,0.01354 -0.328663,0.02997 -0.21103,0.01643 -0.515545,0.03569 -0.888318,0.04703 -0.186386,0.0057 -0.389617,0.0095 -0.607198,0.0098 -0.21758,3.54e-4 -0.449333,-0.0027 -0.691947,-0.01033 -0.242614,-0.0076 -0.496091,-0.0199 -0.757576,-0.03824 -0.261601,-0.01831 -0.5310371,-0.04266 -0.8052343,-0.07438 C 9.2797415,51.607697 9.0006288,51.568369 8.719881,51.520567 8.4391335,51.472767 8.1566254,51.416601 7.8754882,51.350035 7.5943509,51.283468 7.3147292,51.206549 7.0393636,51.118524 6.9016808,51.074514 6.7651711,51.027846 6.6300862,50.977965 6.4950014,50.928085 6.3613106,50.875404 6.2295939,50.819318 6.0978771,50.763231 5.9680487,50.703663 5.8404704,50.641034 5.712892,50.578407 5.5874528,50.512618 5.4647827,50.443115 5.3421126,50.373609 5.2221061,50.300208 5.1051147,50.223489 4.9881231,50.146768 4.8740763,50.06643 4.7635334,49.98216 4.7421674,49.96587 4.7226304,49.94758 4.7015214,49.931 c -1.1853548,1.287018 -1.908815,3.037779 -1.0407632,4.882391 1.3312368,2.828877 -1.4976546,5.491496 0.3327961,9.485207 15.6427637,24.797408 94.3118767,11.258123 93.6857537,4.659148 4.492922,-3.161689 5.158842,-9.817862 5.658052,-13.478764 0.27737,-2.034008 0.80985,-2.578021 0.48783,-3.20239 z" />
    <path
       id="path4029"
       style="fill:#e6e6e6;fill-opacity:1;stroke:none;stroke-width:0.999999px;stroke-linecap:butt;stroke-linejoin:miter;stroke-opacity:1"
       d="m 201.76562,16.533203 c -8.45098,-0.02875 -14.24037,0.652923 -14.97265,2.333985 -6.28931,14.438067 -59.74986,11.449788 -63.52344,3.144531 -1.87608,-4.129063 -49.684981,3.774554 -64.150389,25.158203 2.579444,36.510659 -6.067194,60.533128 -25.785157,96.226558 3.035579,4.85333 6.29346,32.69999 -7.546875,39.62305 -2.746907,1.37403 -5.627044,3.47866 -8.017578,6.07422 0.07978,0.0627 0.15362,0.1318 0.234375,0.19336 0.4178,0.3185 0.848843,0.62214 1.291016,0.91211 0.442172,0.28996 0.89574,0.56738 1.359375,0.83008 0.463635,0.26269 0.937736,0.51134 1.419922,0.74804 0.482186,0.23671 0.972876,0.46185 1.470703,0.67383 0.497827,0.21198 1.003115,0.41109 1.513672,0.59961 0.510557,0.18853 1.026499,0.36491 1.546875,0.53125 1.040752,0.33269 2.09759,0.62341 3.160156,0.875 1.062566,0.25159 2.130313,0.46387 3.191406,0.64453 1.061094,0.18067 2.116008,0.32931 3.152344,0.44922 1.036336,0.11991 2.054676,0.21193 3.042969,0.28125 0.988293,0.0693 1.946316,0.11563 2.863281,0.14453 0.916965,0.0289 1.792883,0.0404 2.615234,0.0391 0.822351,-0.001 1.590471,-0.0157 2.294922,-0.0371 1.408904,-0.0428 2.559829,-0.11564 3.357422,-0.17774 0.797594,-0.0621 1.242188,-0.11328 1.242188,-0.11328 -0.02601,0.052 -0.01734,0.10495 0.02344,0.16016 0.04078,0.0552 0.113801,0.11343 0.216797,0.17187 0.205991,0.11689 0.531634,0.23889 0.958984,0.36914 0.427351,0.13025 0.956308,0.26799 1.56836,0.41211 0.612052,0.14412 1.308263,0.29462 2.068359,0.45313 1.520192,0.317 3.298986,0.66338 5.191406,1.04101 1.89242,0.37764 3.897755,0.78809 5.869141,1.23047 0.597974,0.13419 1.226697,0.29406 1.878906,0.47656 0.65221,0.18251 1.327254,0.38611 2.021485,0.60938 1.388462,0.44653 2.848771,0.96704 4.332031,1.53125 1.48326,0.5642 2.990361,1.17353 4.470703,1.79492 1.480342,0.62139 2.934747,1.25496 4.314453,1.87305 1.379707,0.61808 2.68388,1.22109 3.865235,1.77539 1.181354,0.55429 2.239713,1.06021 3.125,1.49023 1.770573,0.86004 2.851562,1.41211 2.851562,1.41211 0,0 0.993499,-0.37794 2.535156,-0.90039 0.770829,-0.26122 1.678739,-0.55816 2.667969,-0.86328 0.989222,-0.30512 2.059962,-0.61895 3.156242,-0.91016 1.09629,-0.2912 2.21854,-0.55982 3.31055,-0.77929 0.54601,-0.10974 1.08337,-0.2081 1.60742,-0.28907 0.52406,-0.081 1.0333,-0.14448 1.52149,-0.18945 0.48819,-0.045 0.95612,-0.0705 1.39453,-0.0723 0.43841,-0.002 0.84795,0.0196 1.22266,0.0684 0.3747,0.0487 0.71462,0.12408 1.01171,0.23047 0.14855,0.0532 0.28558,0.11463 0.41211,0.1836 0.12653,0.069 0.24293,0.14677 0.34571,0.23242 0.20555,0.17129 0.43224,0.31877 0.67968,0.44336 0.24745,0.12459 0.51528,0.226 0.80274,0.30469 0.28745,0.0787 0.59433,0.13437 0.91992,0.16796 0.3256,0.0336 0.66939,0.0459 1.03125,0.0352 0.36186,-0.0107 0.74047,-0.0435 1.13672,-0.0977 0.39625,-0.0542 0.80951,-0.13162 1.23828,-0.22851 0.42877,-0.0969 0.87457,-0.21474 1.33399,-0.35352 0.45941,-0.13877 0.93368,-0.2967 1.42187,-0.47656 0.48819,-0.17986 0.98882,-0.38142 1.50391,-0.60156 0.51509,-0.22014 1.04387,-0.45913 1.58398,-0.71875 0.54012,-0.25962 1.09298,-0.5396 1.65625,-0.83789 0.56327,-0.2983 1.13811,-0.61501 1.72266,-0.95117 1.16909,-0.67234 2.37813,-1.41928 3.62109,-2.23829 1.24296,-0.819 2.51847,-1.71066 3.82031,-2.66992 0.32546,-0.23981 0.67256,-0.46341 1.03711,-0.67187 0.36456,-0.20847 0.74797,-0.40142 1.14844,-0.58008 0.40047,-0.17866 0.81679,-0.34376 1.25,-0.49414 0.43321,-0.15039 0.88294,-0.2865 1.3457,-0.41016 0.46277,-0.12365 0.93859,-0.23357 1.42774,-0.33203 0.48914,-0.0985 0.99156,-0.18496 1.5039,-0.25976 0.51235,-0.0748 1.03404,-0.13872 1.56641,-0.19141 0.53237,-0.0527 1.07578,-0.0948 1.625,-0.12695 1.09843,-0.0642 2.22631,-0.0889 3.37305,-0.0801 1.14674,0.009 2.31084,0.0515 3.48047,0.12109 1.16962,0.0696 2.34463,0.16712 3.51171,0.28516 1.16709,0.11803 2.32769,0.25599 3.4668,0.41015 1.13911,0.15417 2.25608,0.32397 3.3418,0.50196 1.08572,0.17798 2.13959,0.36519 3.14648,0.55468 2.01379,0.379 3.84469,0.76799 5.39063,1.11915 1.54594,0.35115 2.80696,0.66384 3.68164,0.88867 0.87467,0.22482 1.36328,0.36133 1.36328,0.36133 0,0 -0.061,-0.0598 -0.12305,-0.14649 -0.0621,-0.0867 -0.1262,-0.19958 -0.13476,-0.30664 -0.004,-0.0535 0.006,-0.10617 0.0371,-0.15234 0.0308,-0.0462 0.0818,-0.0867 0.16211,-0.11719 0.0803,-0.0305 0.18972,-0.0501 0.33398,-0.0566 0.14426,-0.007 0.32419,-3e-4 0.54688,0.0254 0.22268,0.0257 0.48717,0.0705 0.80273,0.13672 0.31556,0.0662 0.68063,0.15444 1.10351,0.26953 0.84578,0.23018 1.92141,0.56567 3.28321,1.04101 1.3618,0.47535 3.01046,1.09007 5.0039,1.87696 1.99345,0.78689 4.33155,1.7473 7.07227,2.91211 0.68518,0.2912 1.35887,0.56362 2.01953,0.82031 0.66066,0.25669 1.30898,0.49688 1.94531,0.7207 1.27267,0.44765 2.49725,0.83221 3.67383,1.15821 1.17659,0.32599 2.30462,0.59308 3.38672,0.81054 1.0821,0.21747 2.11819,0.38381 3.10742,0.50586 0.98923,0.12205 1.93212,0.20049 2.83008,0.24024 0.89796,0.0397 1.7503,0.0412 2.55859,0.0117 0.8083,-0.0294 1.57273,-0.0903 2.29297,-0.17579 0.72025,-0.0855 1.39551,-0.19574 2.0293,-0.32421 0.63379,-0.12848 1.22644,-0.27528 1.77539,-0.4336 0.54895,-0.15831 1.05578,-0.32691 1.52148,-0.50195 0.46571,-0.17504 0.88937,-0.3565 1.27344,-0.53516 0.38408,-0.17865 0.7272,-0.35428 1.03125,-0.52344 0.6081,-0.3383 1.05785,-0.64557 1.35547,-0.86718 0.29763,-0.22162 0.44336,-0.35938 0.44336,-0.35938 0,0 2.02185,-0.47963 5.13086,-1.15625 1.5545,-0.33831 3.38161,-0.72548 5.36328,-1.12695 1.98167,-0.40147 4.11752,-0.81696 6.29297,-1.21094 2.17545,-0.39398 4.38955,-0.7662 6.52539,-1.08203 1.06792,-0.15791 2.1166,-0.30065 3.13086,-0.42578 1.01426,-0.12513 1.99436,-0.2329 2.92578,-0.31641 0.93142,-0.0835 1.81341,-0.14272 2.63281,-0.17578 0.81941,-0.0331 1.57569,-0.0399 2.25391,-0.0137 0.67822,0.0262 1.27925,0.0853 1.78711,0.17969 0.25393,0.0472 0.48358,0.10211 0.68945,0.16797 0.20587,0.0659 0.38685,0.14286 0.54102,0.22851 0.30833,0.1713 0.6964,0.34005 1.15234,0.50586 0.45594,0.16581 0.98063,0.32842 1.5625,0.48633 0.58187,0.15791 1.22013,0.31138 1.90625,0.45898 0.68612,0.14761 1.42077,0.28894 2.18945,0.42383 0.76869,0.1349 1.57277,0.26304 2.40235,0.38281 0.82958,0.11978 1.68395,0.23175 2.55273,0.33399 1.73758,0.20448 3.53254,0.37033 5.29688,0.49023 0.88217,0.06 1.75694,0.10934 2.61328,0.14453 0.85634,0.0352 1.69312,0.0564 2.50195,0.0645 0.80884,0.008 1.58848,0.002 2.32813,-0.0195 0.73964,-0.0215 1.43911,-0.0578 2.08789,-0.11133 0.64878,-0.0535 1.24697,-0.12497 1.7832,-0.21289 0.53624,-0.0879 1.0101,-0.19364 1.41211,-0.31836 0.201,-0.0624 0.38545,-0.12916 0.54883,-0.20117 0.16338,-0.072 0.30663,-0.14851 0.42969,-0.23047 0.12305,-0.082 0.22467,-0.1695 0.30468,-0.26172 0.08,-0.0922 0.13762,-0.18824 0.17188,-0.29102 0.0343,-0.10277 0.10058,-0.21137 0.19726,-0.32226 0.0967,-0.11089 0.22536,-0.22565 0.38086,-0.34375 0.15551,-0.1181 0.33813,-0.23888 0.54883,-0.36328 0.21071,-0.12441 0.44864,-0.25105 0.71094,-0.38086 0.52459,-0.25962 1.14815,-0.52888 1.85742,-0.80469 0.70927,-0.27581 1.5041,-0.55897 2.36914,-0.84375 0.86504,-0.28478 1.80106,-0.57286 2.79297,-0.85938 0.99191,-0.28651 2.03904,-0.57053 3.12891,-0.85156 1.08986,-0.28103 2.22194,-0.55785 3.38086,-0.82617 1.15892,-0.26832 2.34585,-0.52897 3.54492,-0.77734 1.19907,-0.24838 2.41078,-0.48582 3.62109,-0.70703 1.21031,-0.22122 2.41869,-0.42647 3.61133,-0.61329 1.19264,-0.18682 2.36955,-0.3548 3.51563,-0.5 1.14607,-0.1452 2.26143,-0.26692 3.33203,-0.36328 1.07059,-0.0964 2.09628,-0.16675 3.0625,-0.20703 0.96621,-0.0403 1.87215,-0.0504 2.70507,-0.0273 0.83293,0.023 1.59295,0.0783 2.26368,0.17187 0.33536,0.0468 0.6481,0.10417 0.9375,0.16992 0.28939,0.0658 0.5551,0.14092 0.79492,0.22657 0.95925,0.34259 2.18512,0.7884 3.64648,1.28515 0.73068,0.24838 1.51987,0.5097 2.36524,0.77735 0.84537,0.26765 1.74639,0.54038 2.69922,0.81445 0.95283,0.27407 1.9567,0.54876 3.00976,0.81641 1.05307,0.26765 2.15471,0.52896 3.30078,0.77734 1.14607,0.24838 2.33651,0.48296 3.56836,0.69922 1.23186,0.21626 2.506,0.41464 3.81641,0.58594 1.31041,0.17129 2.65732,0.3162 4.03906,0.42968 1.38174,0.11349 2.7983,0.19546 4.24414,0.23828 1.44584,0.0428 2.92112,0.0465 4.42383,0.006 0.75136,-0.0203 1.50922,-0.0521 2.27344,-0.0957 0.76422,-0.0436 1.53436,-0.0994 2.31054,-0.16797 0.77619,-0.0685 1.55847,-0.14912 2.34571,-0.24414 0.78724,-0.095 1.57956,-0.205 2.37695,-0.32812 0.79739,-0.12312 1.59961,-0.25929 2.40625,-0.41211 0.80664,-0.15283 1.6186,-0.32172 2.43359,-0.50586 0.81499,-0.18414 1.63265,-0.3845 2.45508,-0.60156 0.82244,-0.21707 1.64954,-0.45154 2.47852,-0.70313 0.004,-0.001 0.008,-0.003 0.0117,-0.004 -0.9735,-1.88749 -4.01047,-3.96888 -11.27735,-9.27929 C 364.78063,176.73001 362.89267,98.11385 360.37695,83.648438 357.86123,69.183029 296.22701,35.220974 284.90625,28.302734 276.41569,23.114057 227.11857,16.619446 201.76562,16.533203 Z"
       transform="scale(0.26458333)" />
  </g>
  <g
     inkscape:groupmode="layer"
     id="layer2"
     inkscape:label="Camada 2"
     sodipodi:insensitive="true"
     style="display:none">
    <path
       style="fill:#000000;fill-opacity:1;stroke:none;stroke-width:0.264583px;stroke-linecap:butt;stroke-linejoin:miter;stroke-opacity:1"
       d="m 15.216062,42.738854 c -1.055598,0 -1.004105,1.158584 -0.978359,1.519031 0.02575,0.360447 -0.102986,1.622019 -0.69515,2.677616 -0.29081,0.5184 -1.313062,3.836198 -0.128732,4.711572 1.18433,0.875374 2.99938,0.68765 3.527243,-0.154478 0.58862,-0.939056 0.60683,-2.783707 -0.20597,-4.557094 -0.28321,-0.617913 -0.564788,-2.084032 -0.566419,-2.600376 -0.0016,-0.507708 0.02484,-1.68405 -0.952613,-1.596271 z"
       id="path6017"
       sodipodi:nodetypes="cssssssc" />
    <path
       style="fill:url(#linearGradient9214);fill-opacity:1;stroke:none;stroke-width:0.264583px;stroke-linecap:butt;stroke-linejoin:miter;stroke-opacity:1"
       d="m 13.448288,51.695389 c -0.601567,-1.702738 -0.123284,-3.029457 0.258743,-3.939055 0.382031,-0.9096 0.383242,-0.731315 0.601546,-1.368032 0.218303,-0.63672 0.372339,-1.381378 0.335956,-1.617874 -0.03638,-0.236495 -0.05458,-0.491183 0.163727,-0.491183 0.372422,0.09325 0.376844,0.347697 0.479546,0.685526 0,0 0.211751,-0.649143 0.411863,-0.667336 0.200111,-0.0182 0.327455,0.16373 0.291071,0.491183 -0.03638,0.327457 0.121268,1.491705 0.394147,2.255766 0.27288,0.764064 0.815023,2.21221 0.614911,3.321918 -0.200111,1.10971 -0.591855,1.608143 -0.591855,1.608143 0,0 -1.482982,0.70699 -2.959653,-0.279056 z"
       id="path7897"
       sodipodi:nodetypes="csssccssssccc" />
    <path
       style="fill:#000000;fill-opacity:1;stroke:none;stroke-width:0.264583px;stroke-linecap:butt;stroke-linejoin:miter;stroke-opacity:1"
       d="m 13.974904,46.017 c -2.037653,0.815062 -3.209303,0.356589 -3.48099,0.577334 -0.271688,0.220747 2.479144,0.662238 3.07346,0.37357 0.594315,-0.288668 0.40753,-0.950904 0.40753,-0.950904 z"
       id="path9585" />
  </g>
  <g
     inkscape:groupmode="layer"
     id="layer3"
     inkscape:label="Camada 3"
     style="display:inline">
    <path
       style="fill:#000000;fill-opacity:1;stroke:none;stroke-width:0.264583px;stroke-linecap:butt;stroke-linejoin:miter;stroke-opacity:1"
       d="m 16.403108,45.966059 c 3.413068,0.560353 3.820599,0.441492 4.024364,0.424511 0.203766,-0.01699 0.74714,0.288666 -1.18863,0.424511 -1.935771,0.135842 -2.614989,-0.01699 -2.614989,-0.01699 -0.189166,0.132323 -0.716426,-0.753179 -0.220745,-0.832032 z"
       id="path9785"
       sodipodi:nodetypes="csscc" />
  </g>
</svg>
